<?xml version="1.0" encoding="utf-8"?>
<!-- Generator: Adobe Illustrator 26.4.1, SVG Export Plug-In . SVG Version: 6.00 Build 0)  -->
<svg version="1.1" id="Layer_1" xmlns="http://www.w3.org/2000/svg" xmlns:xlink="http://www.w3.org/1999/xlink" x="0px" y="0px"
	 viewBox="0 0 792 612" style="enable-background:new 0 0 792 612;" xml:space="preserve">
<style type="text/css">
	.st0{fill:url(#SVGID_1_);}
	.st1{display:none;}
	.st2{display:inline;fill:#FFFFFF;}
	.st3{fill:#010101;}
	.st4{fill:#FFFFFF;}
	.st5{fill:#FFFFFF;stroke:#FFFFFF;stroke-width:0.5704;stroke-miterlimit:10;}
	.st6{fill:none;stroke:#FFFFFF;stroke-width:0.3715;}
	.st7{fill:#070707;stroke:#FFFFFF;stroke-width:0.8336;stroke-miterlimit:10;}
	
		.st8{fill:none;stroke:url(#SVGID_00000029010144484687970770000010358600994696034473_);stroke-width:12.658;stroke-miterlimit:10;}
	.st9{fill:none;stroke:url(#SVGID_00000146457629656166599920000004213814018918381473_);stroke-width:11;stroke-miterlimit:10;}
</style>
<g id="STILL_CARD_00000039842945106918532560000000289144111077959607_">
	<linearGradient id="SVGID_1_" gradientUnits="userSpaceOnUse" x1="254.8165" y1="305.4312" x2="612.7903" y2="305.4312">
		<stop  offset="0" style="stop-color:#E5E2DF"/>
		<stop  offset="0" style="stop-color:#DEDAD6"/>
		<stop  offset="3.846586e-02" style="stop-color:#C9C5C3"/>
		<stop  offset="0.1123" style="stop-color:#9D9C9C"/>
		<stop  offset="0.213" style="stop-color:#63676A"/>
		<stop  offset="0.264" style="stop-color:#475154"/>
		<stop  offset="0.3705" style="stop-color:#7C7F82"/>
		<stop  offset="0.4629" style="stop-color:#ACAEAF"/>
		<stop  offset="0.5332" style="stop-color:#CFD0D0"/>
		<stop  offset="0.573" style="stop-color:#E0E1E0"/>
		<stop  offset="0.627" style="stop-color:#D6D7D7"/>
		<stop  offset="0.7179" style="stop-color:#BEC0C2"/>
		<stop  offset="0.8339" style="stop-color:#999EA4"/>
		<stop  offset="0.8764" style="stop-color:#8B9299"/>
		<stop  offset="1" style="stop-color:#D2D3D4"/>
		<stop  offset="1" style="stop-color:#A8AAAD"/>
	</linearGradient>
	<path class="st0" d="M275.3,581.6c-10.8,0-19.5-8.7-19.5-19.4l-0.9-512.9c0-10.8,8.7-19.5,19.4-19.5l318.1-0.6
		c10.8,0,19.5,8.7,19.5,19.4l0.9,512.9c0,10.8-8.7,19.5-19.4,19.5L275.3,581.6z"/>
	<g class="st1">
		<path class="st2" d="M533.9,540.4l-3,0l0,2.7l3.3,0l0,0.8l-4.3,0l-0.1-7.6l4.1,0l0,0.8l-3.1,0l0,2.4l3,0L533.9,540.4z"/>
		<path class="st2" d="M539.7,543.9l-1-1.7c-0.4-0.6-0.7-1.1-0.9-1.5l0,0c-0.2,0.4-0.4,0.9-0.8,1.5l-0.9,1.7l-1.1,0l2.3-3.9
			l-2.3-3.7l1.1,0l1,1.8c0.3,0.5,0.5,0.9,0.7,1.3l0,0c0.2-0.5,0.4-0.8,0.7-1.3l1-1.8l1.1,0l-2.3,3.7l2.4,3.9L539.7,543.9z"/>
		<path class="st2" d="M541.9,536.3c0.5-0.1,1.1-0.2,1.9-0.2c1,0,1.7,0.2,2.1,0.6c0.4,0.4,0.7,0.9,0.7,1.6c0,0.7-0.2,1.2-0.6,1.6
			c-0.5,0.6-1.4,0.9-2.3,0.9c-0.3,0-0.6,0-0.8-0.1l0,3.1l-1,0L541.9,536.3z M543,540c0.2,0.1,0.5,0.1,0.8,0.1c1.2,0,1.9-0.6,1.9-1.6
			c0-1-0.7-1.5-1.8-1.5c-0.4,0-0.8,0-0.9,0.1L543,540z"/>
		<path class="st2" d="M548.9,536.2l0.1,7.6l-1,0l-0.1-7.6L548.9,536.2z"/>
		<path class="st2" d="M550.6,536.2c0.5-0.1,1.2-0.2,1.9-0.2c1.1,0,1.7,0.2,2.2,0.6c0.4,0.3,0.6,0.9,0.6,1.4c0,1-0.6,1.7-1.4,2l0,0
			c0.6,0.2,0.9,0.7,1.1,1.5c0.3,1.1,0.5,1.8,0.6,2.1l-1,0c-0.1-0.2-0.3-0.9-0.5-1.8c-0.2-1-0.6-1.4-1.5-1.5l-0.9,0l0,3.3l-1,0
			L550.6,536.2z M551.7,539.7l1,0c1.1,0,1.7-0.6,1.7-1.5c0-1-0.7-1.4-1.8-1.4c-0.5,0-0.8,0.1-1,0.1L551.7,539.7z"/>
		<path class="st2" d="M560.7,540.1l-3,0l0,2.7l3.3,0l0,0.8l-4.3,0l-0.1-7.6l4.1,0l0,0.8l-3.1,0l0,2.4l3,0L560.7,540.1z"/>
		<path class="st2" d="M562.2,542.4c0.4,0.3,1.1,0.5,1.8,0.5c1,0,1.6-0.5,1.6-1.3c0-0.7-0.4-1.1-1.5-1.5c-1.2-0.4-2-1.1-2-2.1
			c0-1.2,1-2.1,2.4-2.1c0.8,0,1.3,0.2,1.7,0.4l-0.3,0.8c-0.3-0.1-0.8-0.4-1.5-0.3c-1,0-1.4,0.6-1.4,1.2c0,0.7,0.5,1.1,1.5,1.5
			c1.3,0.5,2,1.1,2,2.2c0,1.2-0.8,2.2-2.6,2.2c-0.7,0-1.5-0.2-1.9-0.5L562.2,542.4z"/>
		<path class="st2" d="M574.2,539.9l-3,0l0,2.7l3.3,0l0,0.8l-4.3,0l-0.1-7.6l4.1,0l0,0.8l-3.1,0l0,2.4l3,0L574.2,539.9z"/>
		<path class="st2" d="M575.9,543.5l-0.1-7.6l1.1,0l2.5,3.8c0.6,0.9,1,1.7,1.4,2.5l0,0c-0.1-1-0.1-1.9-0.1-3.1l0-3.2l0.9,0l0.1,7.6
			l-1,0l-2.5-3.8c-0.5-0.8-1.1-1.7-1.5-2.5l0,0c0.1,1,0.1,1.9,0.1,3.1l0,3.3L575.9,543.5z"/>
		<path class="st2" d="M583.2,535.9c0.6-0.1,1.3-0.2,2.1-0.2c1.4,0,2.4,0.3,3.1,0.9c0.7,0.6,1.1,1.5,1.1,2.7c0,1.2-0.4,2.3-1.1,3
			c-0.7,0.7-1.9,1.1-3.4,1.1c-0.7,0-1.3,0-1.8-0.1L583.2,535.9z M584.3,542.6c0.2,0,0.6,0.1,1,0c2.1,0,3.2-1.2,3.2-3.3
			c0-1.8-1-2.9-3.1-2.9c-0.5,0-0.9,0.1-1.2,0.1L584.3,542.6z"/>
	</g>
</g>
<g>
	<path class="st3" d="M277.7,522.6c0.8-0.1,1.8-0.2,3.1-0.2c1.6,0,2.8,0.4,3.5,1c0.7,0.6,1.1,1.5,1.1,2.6c0,1.1-0.3,2-1,2.7
		c-0.9,0.9-2.2,1.4-3.8,1.4c-0.5,0-0.9,0-1.3-0.1v5h-1.6V522.6z M279.3,528.6c0.4,0.1,0.8,0.1,1.3,0.1c1.9,0,3.1-0.9,3.1-2.7
		c0-1.7-1.2-2.4-2.9-2.4c-0.7,0-1.2,0.1-1.5,0.1V528.6z"/>
	<path class="st3" d="M287.6,522.6c0.8-0.2,2-0.3,3.1-0.3c1.7,0,2.8,0.3,3.6,1c0.6,0.6,1,1.4,1,2.4c0,1.7-1,2.7-2.4,3.2v0.1
		c1,0.3,1.5,1.2,1.8,2.5c0.4,1.7,0.7,2.9,1,3.4H294c-0.2-0.4-0.5-1.4-0.8-3c-0.4-1.7-1-2.4-2.5-2.4h-1.5v5.4h-1.6V522.6z
		 M289.2,528.3h1.7c1.7,0,2.8-0.9,2.8-2.4c0-1.6-1.2-2.3-2.9-2.3c-0.8,0-1.3,0.1-1.6,0.1V528.3z"/>
	<path class="st3" d="M299.2,522.5V535h-1.6v-12.5H299.2z"/>
	<path class="st3" d="M304.7,535l-4.1-12.5h1.7l1.9,6.2c0.5,1.7,1,3.2,1.3,4.7h0c0.4-1.4,0.9-3,1.4-4.7l2.1-6.2h1.7l-4.5,12.5H304.7
		z"/>
	<path class="st3" d="M313.9,522.5V535h-1.6v-12.5H313.9z"/>
	<path class="st3" d="M316.8,522.5h1.6v11.1h5.3v1.4h-7V522.5z"/>
	<path class="st3" d="M332,529.1h-4.9v4.5h5.4v1.4h-7v-12.5h6.7v1.4h-5.1v3.9h4.9V529.1z"/>
	<path class="st3" d="M344.2,534.4c-0.7,0.3-2.2,0.7-3.8,0.7c-1.9,0-3.4-0.5-4.7-1.7c-1.1-1-1.7-2.7-1.7-4.7c0-3.7,2.6-6.5,6.8-6.5
		c1.4,0,2.6,0.3,3.1,0.6l-0.4,1.3c-0.7-0.3-1.5-0.5-2.8-0.5c-3,0-5,1.9-5,5c0,3.2,1.9,5,4.8,5c1.1,0,1.8-0.1,2.2-0.3v-3.7H340v-1.3
		h4.1V534.4z"/>
	<path class="st3" d="M353.1,529.1h-4.9v4.5h5.4v1.4h-7v-12.5h6.7v1.4h-5.1v3.9h4.9V529.1z"/>
	<path class="st3" d="M370.2,529.5c-0.1-1.7-0.2-3.8-0.2-5.4H370c-0.4,1.5-0.9,3-1.6,4.7l-2.2,6.1H365l-2-6
		c-0.6-1.8-1.1-3.4-1.4-4.9h0c0,1.6-0.1,3.7-0.2,5.5l-0.3,5.4h-1.5l0.9-12.5h2.1l2.1,6c0.5,1.5,0.9,2.9,1.3,4.2h0.1
		c0.3-1.3,0.8-2.6,1.3-4.2l2.2-6h2.1l0.8,12.5h-1.6L370.2,529.5z"/>
	<path class="st3" d="M381.1,529.1h-4.9v4.5h5.4v1.4h-7v-12.5h6.7v1.4h-5.1v3.9h4.9V529.1z"/>
	<path class="st3" d="M394.3,529.5c-0.1-1.7-0.2-3.8-0.2-5.4H394c-0.4,1.5-0.9,3-1.6,4.7l-2.2,6.1H389l-2-6
		c-0.6-1.8-1.1-3.4-1.4-4.9h0c0,1.6-0.1,3.7-0.2,5.5l-0.3,5.4h-1.5l0.9-12.5h2.1l2.1,6c0.5,1.5,0.9,2.9,1.3,4.2h0.1
		c0.3-1.3,0.8-2.6,1.3-4.2l2.2-6h2.1l0.8,12.5h-1.6L394.3,529.5z"/>
	<path class="st3" d="M398.7,522.6c0.7-0.1,1.8-0.3,2.9-0.3c1.6,0,2.7,0.3,3.4,0.9c0.6,0.5,1,1.2,1,2.2c0,1.2-0.8,2.3-2.1,2.7v0
		c1.2,0.3,2.6,1.3,2.6,3.1c0,1.1-0.4,1.9-1.1,2.5c-0.9,0.8-2.3,1.2-4.3,1.2c-1.1,0-2-0.1-2.5-0.1V522.6z M400.3,527.7h1.5
		c1.7,0,2.7-0.9,2.7-2.1c0-1.5-1.1-2-2.7-2c-0.7,0-1.2,0.1-1.4,0.1V527.7z M400.3,533.7c0.3,0.1,0.8,0.1,1.4,0.1
		c1.7,0,3.2-0.6,3.2-2.4c0-1.7-1.5-2.4-3.2-2.4h-1.3V533.7z"/>
	<path class="st3" d="M415.2,529.1h-4.9v4.5h5.4v1.4h-7v-12.5h6.7v1.4h-5.1v3.9h4.9V529.1z"/>
	<path class="st3" d="M417.8,522.6c0.8-0.2,2-0.3,3.1-0.3c1.7,0,2.8,0.3,3.6,1c0.6,0.6,1,1.4,1,2.4c0,1.7-1,2.7-2.4,3.2v0.1
		c1,0.3,1.5,1.2,1.8,2.5c0.4,1.7,0.7,2.9,1,3.4h-1.7c-0.2-0.4-0.5-1.4-0.8-3c-0.4-1.7-1-2.4-2.5-2.4h-1.5v5.4h-1.6V522.6z
		 M419.5,528.3h1.7c1.7,0,2.8-0.9,2.8-2.4c0-1.6-1.2-2.3-2.9-2.3c-0.8,0-1.3,0.1-1.6,0.1V528.3z"/>
</g>
<g>
	<path class="st3" d="M287.2,551.2c0,4.8-1.8,7.4-4.9,7.4c-2.8,0-4.6-2.6-4.7-7.2c0-4.7,2-7.3,4.9-7.3
		C285.6,544.1,287.2,546.8,287.2,551.2z M279.6,551.5c0,3.7,1.1,5.7,2.9,5.7c1.9,0,2.9-2.3,2.9-5.9c0-3.5-0.9-5.7-2.9-5.7
		C280.8,545.6,279.6,547.6,279.6,551.5z"/>
	<path class="st3" d="M298.3,551.2c0,4.8-1.8,7.4-4.9,7.4c-2.8,0-4.6-2.6-4.7-7.2c0-4.7,2-7.3,4.9-7.3
		C296.7,544.1,298.3,546.8,298.3,551.2z M290.7,551.5c0,3.7,1.1,5.7,2.9,5.7c1.9,0,2.9-2.3,2.9-5.9c0-3.5-0.9-5.7-2.9-5.7
		C291.9,545.6,290.7,547.6,290.7,551.5z"/>
	<path class="st3" d="M304.2,546.1L304.2,546.1l-2.5,1.3l-0.4-1.5l3.1-1.6h1.6v14.1h-1.8V546.1z"/>
	<path class="st3" d="M311.2,558.4v-1.2l1.5-1.5c3.6-3.4,5.2-5.2,5.2-7.4c0-1.4-0.7-2.8-2.8-2.8c-1.3,0-2.3,0.6-3,1.2l-0.6-1.3
		c1-0.8,2.4-1.4,4-1.4c3,0,4.3,2.1,4.3,4.1c0,2.6-1.9,4.7-4.9,7.6l-1.1,1v0h6.3v1.6H311.2z"/>
	<path class="st3" d="M336.2,551.2c0,4.8-1.8,7.4-4.9,7.4c-2.8,0-4.6-2.6-4.7-7.2c0-4.7,2-7.3,4.9-7.3
		C334.6,544.1,336.2,546.8,336.2,551.2z M328.6,551.5c0,3.7,1.1,5.7,2.9,5.7c1.9,0,2.9-2.3,2.9-5.9c0-3.5-0.9-5.7-2.9-5.7
		C329.8,545.6,328.6,547.6,328.6,551.5z"/>
	<path class="st3" d="M347.4,551.2c0,4.8-1.8,7.4-4.9,7.4c-2.8,0-4.6-2.6-4.7-7.2c0-4.7,2-7.3,4.9-7.3
		C345.7,544.1,347.4,546.8,347.4,551.2z M339.7,551.5c0,3.7,1.1,5.7,2.9,5.7c1.9,0,2.9-2.3,2.9-5.9c0-3.5-0.9-5.7-2.9-5.7
		C340.9,545.6,339.7,547.6,339.7,551.5z"/>
	<path class="st3" d="M349.6,556.2c0.5,0.3,1.8,0.9,3.1,0.9c2.4,0,3.2-1.6,3.2-2.7c0-2-1.8-2.8-3.6-2.8h-1.1v-1.4h1.1
		c1.4,0,3.1-0.7,3.1-2.4c0-1.1-0.7-2.1-2.5-2.1c-1.1,0-2.2,0.5-2.8,0.9l-0.5-1.4c0.7-0.5,2.2-1.1,3.7-1.1c2.8,0,4,1.6,4,3.4
		c0,1.5-0.9,2.7-2.6,3.3v0c1.7,0.3,3.1,1.6,3.1,3.6c0,2.3-1.8,4.2-5.1,4.2c-1.6,0-3-0.5-3.7-1L349.6,556.2z"/>
	<path class="st3" d="M368.6,546h-5.4l-0.5,3.6c0.3,0,0.6-0.1,1.1-0.1c1.1,0,2.2,0.2,3,0.8c1.1,0.6,2,1.8,2,3.6
		c0,2.8-2.2,4.8-5.2,4.8c-1.5,0-2.8-0.4-3.5-0.9l0.5-1.5c0.6,0.3,1.7,0.8,3,0.8c1.8,0,3.3-1.2,3.3-3.1c0-1.8-1.2-3.1-4-3.1
		c-0.8,0-1.4,0.1-1.9,0.2l0.9-6.8h6.7V546z"/>
	<path class="st3" d="M385.2,551.2c0,4.8-1.8,7.4-4.9,7.4c-2.8,0-4.6-2.6-4.7-7.2c0-4.7,2-7.3,4.9-7.3
		C383.6,544.1,385.2,546.8,385.2,551.2z M377.6,551.5c0,3.7,1.1,5.7,2.9,5.7c1.9,0,2.9-2.3,2.9-5.9c0-3.5-0.9-5.7-2.9-5.7
		C378.8,545.6,377.6,547.6,377.6,551.5z"/>
	<path class="st3" d="M396.4,551.2c0,4.8-1.8,7.4-4.9,7.4c-2.8,0-4.6-2.6-4.7-7.2c0-4.7,2-7.3,4.9-7.3
		C394.7,544.1,396.4,546.8,396.4,551.2z M388.7,551.5c0,3.7,1.1,5.7,2.9,5.7c1.9,0,2.9-2.3,2.9-5.9c0-3.5-0.9-5.7-2.9-5.7
		C389.9,545.6,388.7,547.6,388.7,551.5z"/>
	<path class="st3" d="M406.5,546h-5.4l-0.5,3.6c0.3,0,0.6-0.1,1.1-0.1c1.1,0,2.2,0.2,3,0.8c1.1,0.6,2,1.8,2,3.6
		c0,2.8-2.2,4.8-5.2,4.8c-1.5,0-2.8-0.4-3.5-0.9l0.5-1.5c0.6,0.3,1.7,0.8,3,0.8c1.8,0,3.3-1.2,3.3-3.1c0-1.8-1.2-3.1-4-3.1
		c-0.8,0-1.4,0.1-1.9,0.2l0.9-6.8h6.7V546z"/>
	<path class="st3" d="M417.2,545.7c-0.4,0-0.9,0-1.4,0.1c-3,0.5-4.6,2.7-4.9,5h0.1c0.7-0.9,1.8-1.6,3.4-1.6c2.5,0,4.2,1.8,4.2,4.5
		c0,2.6-1.8,5-4.7,5c-3,0-5-2.3-5-6c0-2.8,1-5,2.4-6.3c1.2-1.1,2.7-1.9,4.5-2.1c0.6-0.1,1-0.1,1.4-0.1V545.7z M416.7,553.8
		c0-2-1.1-3.2-2.9-3.2c-1.1,0-2.2,0.7-2.7,1.7c-0.1,0.2-0.2,0.5-0.2,0.8c0,2.3,1.1,4,3.1,4C415.6,557.2,416.7,555.8,416.7,553.8z"/>
</g>
<g>
	<path class="st4" d="M579.8,296.8c-1,0-1.9-0.2-2.7-0.6c-0.8-0.4-1.5-1-2-1.8c-0.5-0.8-0.8-1.6-0.8-2.5c0-0.9,0.2-1.7,0.7-2.5
		c0.5-0.8,1.2-1.4,2-1.8s1.8-0.7,2.7-0.7c1,0,1.9,0.2,2.7,0.7c0.9,0.4,1.5,1,2,1.8c0.5,0.8,0.7,1.6,0.7,2.5c0,0.9-0.3,1.7-0.8,2.5
		c-0.5,0.8-1.2,1.4-2,1.8C581.7,296.6,580.8,296.8,579.8,296.8z M579.8,296c0.8,0,1.6-0.2,2.3-0.5c0.7-0.4,1.3-0.9,1.7-1.5
		c0.4-0.6,0.6-1.4,0.6-2.1c0-0.7-0.2-1.4-0.6-2.1c-0.4-0.6-1-1.2-1.7-1.5c-0.7-0.4-1.5-0.6-2.3-0.6c-0.8,0-1.6,0.2-2.3,0.6
		c-0.7,0.4-1.3,0.9-1.7,1.5c-0.4,0.6-0.6,1.3-0.6,2.1c0,0.8,0.2,1.5,0.6,2.1c0.4,0.6,1,1.1,1.7,1.5C578.2,295.9,579,296,579.8,296z
		 M578.8,294.9h-1.1v-6h2.2c0.5,0,0.9,0.1,1.2,0.2c0.3,0.1,0.5,0.3,0.6,0.6c0.2,0.3,0.2,0.5,0.2,0.8c0,0.3-0.1,0.7-0.3,1
		c-0.2,0.3-0.6,0.6-1,0.7c0.2,0.1,0.5,0.4,0.8,0.9l1.1,1.9h-1.2l-0.9-1.6l-0.2-0.4c-0.3-0.4-0.4-0.6-0.6-0.6h-0.8V294.9z
		 M578.8,291.7h0.7c0.5,0,0.8-0.1,1-0.3c0.2-0.2,0.3-0.5,0.3-0.8c0-0.2,0-0.3-0.1-0.5c-0.1-0.1-0.2-0.3-0.3-0.3
		c-0.1-0.1-0.4-0.1-0.8-0.1h-0.8V291.7z"/>
	<path class="st5" d="M299.7,286.8c2.1,0,4.1,0.4,5.9,1.2c1.9,0.8,3.5,1.9,4.9,3.3c1.4,1.4,2.5,3,3.3,4.9c0.8,1.9,1.2,3.8,1.2,5.9
		c0,2.1-0.4,4.1-1.2,5.9c-0.8,1.9-1.9,3.5-3.3,4.8c-1.4,1.4-3,2.5-4.9,3.3c-1.9,0.8-3.8,1.2-5.9,1.2s-4.1-0.4-5.9-1.2
		c-1.9-0.8-3.5-1.9-4.8-3.3c-1.4-1.4-2.5-3-3.3-4.8c-0.8-1.9-1.2-3.8-1.2-5.9c0-2.1,0.4-4.1,1.2-5.9c0.8-1.9,1.9-3.5,3.3-4.9
		c1.4-1.4,3-2.5,4.8-3.3C295.7,287.2,297.6,286.8,299.7,286.8z M299.7,288.3c-1.9,0-3.7,0.4-5.4,1.1c-1.7,0.7-3.1,1.7-4.3,2.9
		c-1.2,1.2-2.2,2.7-2.9,4.4c-0.7,1.7-1.1,3.5-1.1,5.3c0,1.9,0.4,3.7,1.1,5.4c0.7,1.7,1.7,3.1,2.9,4.3c1.2,1.2,2.7,2.2,4.3,2.9
		c1.7,0.7,3.5,1.1,5.4,1.1c1.9,0,3.7-0.4,5.3-1.1c1.7-0.7,3.1-1.7,4.4-2.9c1.2-1.2,2.2-2.7,2.9-4.3c0.7-1.7,1.1-3.4,1.1-5.4
		c0-1.9-0.4-3.7-1.1-5.3c-0.7-1.7-1.7-3.1-2.9-4.4c-1.2-1.2-2.7-2.2-4.4-2.9C303.4,288.7,301.6,288.3,299.7,288.3z"/>
	<path class="st5" d="M334.9,288.3c-1.9,0-3.7,0.4-5.4,1.1c-1.7,0.7-3.1,1.7-4.3,2.9c-1.2,1.2-2.2,2.7-2.9,4.4
		c-0.7,1.7-1.1,3.5-1.1,5.3c0,1.9,0.4,3.7,1.1,5.4c0.7,1.7,1.7,3.1,2.9,4.3c1.2,1.2,2.7,2.2,4.3,2.9c1.7,0.7,3.5,1.1,5.4,1.1
		c2.1,0,4.1-0.4,6-1.3c1.9-0.9,3.5-2.2,4.7-3.8c0.1-0.2,0.3-0.3,0.6-0.3c0.5,0,0.8,0.3,0.8,0.8c0,0.1-0.1,0.3-0.2,0.5
		c-1.4,1.8-3.1,3.1-5.2,4.2s-4.3,1.5-6.7,1.5c-2.1,0-4.1-0.4-5.9-1.2c-1.9-0.8-3.5-1.9-4.8-3.3c-1.4-1.4-2.5-3-3.3-4.8
		c-0.8-1.9-1.2-3.8-1.2-5.9c0-1.6,0.2-3.1,0.7-4.5c0.5-1.5,1.1-2.8,1.9-4c0.8-1.2,1.8-2.3,2.9-3.3c1.1-1,2.4-1.7,3.8-2.3
		c0.9-0.4,1.9-0.7,2.9-0.9c1-0.2,2-0.3,3-0.3c2.1,0,4.1,0.4,6,1.2c1.9,0.8,3.6,1.9,4.9,3.3c0.3,0.3,0.4,0.4,0.5,0.6s0.1,0.2,0.1,0.4
		c0,0.4-0.2,0.7-0.7,0.7c-0.1,0-0.2,0-0.3-0.1c-0.1,0-0.3-0.2-0.5-0.5c-1.3-1.3-2.8-2.3-4.5-3C338.5,288.7,336.8,288.3,334.9,288.3z
		"/>
	<path class="st5" d="M353,287.5c0-0.5,0.3-0.8,0.8-0.8c0.5,0,0.8,0.3,0.8,0.8v19.3c0,1.2,0.2,2.4,0.7,3.4c0.5,1.1,1.1,2,1.9,2.8
		c0.8,0.8,1.7,1.5,2.8,1.9c1.1,0.5,2.3,0.7,3.5,0.7c1.2,0,2.4-0.2,3.5-0.7c1.1-0.5,2-1.1,2.9-1.9c0.8-0.8,1.5-1.8,1.9-2.8
		c0.5-1.1,0.7-2.2,0.7-3.4v-19.5c0-0.5,0.3-0.8,0.8-0.8c0.5,0,0.8,0.3,0.8,0.8v19.5c0,1.4-0.3,2.8-0.8,4s-1.3,2.4-2.3,3.3
		s-2.1,1.7-3.3,2.2c-1.3,0.5-2.6,0.8-4,0.8c-1.4,0-2.8-0.3-4-0.8c-1.3-0.5-2.4-1.3-3.3-2.2c-0.9-0.9-1.7-2-2.2-3.3
		c-0.5-1.3-0.8-2.6-0.8-4V287.5z"/>
	<path class="st5" d="M380.1,287.6c0-0.2,0.1-0.4,0.2-0.5c0.1-0.2,0.3-0.2,0.5-0.2c0.3,0,0.5,0.1,0.6,0.2c0.1,0.2,0.2,0.3,0.2,0.5
		v28.2H395c0.5,0,0.8,0.3,0.8,0.8c0,0.2-0.1,0.4-0.2,0.5c-0.1,0.1-0.3,0.2-0.6,0.2h-14.3c-0.3,0-0.4-0.1-0.5-0.2
		c-0.1-0.1-0.1-0.3-0.1-0.5V287.6z"/>
	<path class="st5" d="M398.8,287.5c0-0.5,0.3-0.8,0.8-0.8c0.5,0,0.8,0.3,0.8,0.8v19.3c0,1.2,0.2,2.4,0.7,3.4c0.5,1.1,1.1,2,1.9,2.8
		c0.8,0.8,1.7,1.5,2.8,1.9c1.1,0.5,2.3,0.7,3.5,0.7c1.2,0,2.4-0.2,3.5-0.7c1.1-0.5,2-1.1,2.9-1.9c0.8-0.8,1.5-1.8,1.9-2.8
		c0.5-1.1,0.7-2.2,0.7-3.4v-19.5c0-0.5,0.3-0.8,0.8-0.8c0.5,0,0.8,0.3,0.8,0.8v19.5c0,1.4-0.3,2.8-0.8,4s-1.3,2.4-2.3,3.3
		s-2.1,1.7-3.3,2.2c-1.3,0.5-2.6,0.8-4,0.8c-1.4,0-2.8-0.3-4-0.8c-1.3-0.5-2.4-1.3-3.3-2.2c-0.9-0.9-1.7-2-2.2-3.3
		c-0.5-1.3-0.8-2.6-0.8-4V287.5z"/>
	<path class="st5" d="M443.6,308.5c0-1-0.2-1.9-0.6-2.6c-0.4-0.8-0.9-1.4-1.6-2c-0.7-0.6-1.5-1.1-2.4-1.5c-0.9-0.4-1.9-0.8-3-1.2
		c-1-0.3-2-0.6-3.1-1.1c-1.1-0.4-2.1-0.9-3-1.5c-0.9-0.6-1.7-1.2-2.3-2c-0.6-0.8-0.9-1.6-0.9-2.6c0-1.1,0.3-2.1,0.8-3
		c0.6-0.9,1.3-1.7,2.1-2.3c0.9-0.6,1.8-1.1,2.9-1.5c1.1-0.3,2.1-0.5,3.1-0.5c0.7,0,1.4,0.1,2.1,0.2c0.7,0.1,1.5,0.4,2.2,0.7
		c0.7,0.3,1.4,0.7,2.1,1.2c0.7,0.5,1.3,1.1,1.9,1.8c0.3,0.4,0.3,0.7,0,1c-0.3,0.3-0.6,0.4-0.9,0.3c-0.3-0.1-0.4-0.2-0.5-0.4
		c-0.5-0.7-1.1-1.3-1.7-1.7c-0.6-0.4-1.2-0.8-1.8-1c-0.6-0.2-1.2-0.4-1.8-0.5c-0.6-0.1-1.1-0.1-1.6-0.1c-0.7,0-1.5,0.1-2.4,0.3
		c-0.9,0.2-1.7,0.6-2.4,1c-0.7,0.5-1.4,1.1-1.8,1.8c-0.5,0.8-0.7,1.7-0.7,2.7c0,0.7,0.2,1.3,0.7,1.9c0.5,0.5,1.1,1,1.9,1.5
		c0.7,0.4,1.6,0.8,2.4,1.1c0.9,0.3,1.7,0.6,2.4,0.9c1.5,0.6,2.8,1.1,4,1.7c1.2,0.6,2.1,1.2,2.9,1.9c0.8,0.7,1.4,1.5,1.8,2.3
		c0.4,0.9,0.6,1.9,0.6,3.1c0,1.2-0.3,2.4-0.8,3.5c-0.5,1.1-1.2,2-2.1,2.8c-0.9,0.8-1.9,1.4-3,1.9c-1.1,0.5-2.3,0.7-3.6,0.7
		c-0.9,0-1.8-0.1-2.8-0.3c-1-0.2-1.9-0.5-2.7-1c-0.9-0.4-1.6-0.9-2.3-1.5c-0.7-0.6-1.2-1.2-1.6-2c-0.2-0.3-0.2-0.6,0-0.9
		c0.2-0.2,0.4-0.4,0.7-0.4c0.4,0,0.6,0.1,0.8,0.4c0.3,0.6,0.8,1.2,1.5,1.7c0.7,0.5,1.4,0.9,2.1,1.3c0.8,0.4,1.5,0.6,2.3,0.8
		c0.8,0.2,1.5,0.3,2.1,0.3c1,0,2-0.2,3-0.6c1-0.4,1.8-0.9,2.6-1.5c0.8-0.7,1.3-1.4,1.8-2.3C443.4,310.5,443.6,309.5,443.6,308.5z"/>
	<path class="st5" d="M478.5,288.3c-1.9,0-3.7,0.4-5.4,1.1c-1.7,0.7-3.1,1.7-4.3,2.9c-1.2,1.2-2.2,2.7-2.9,4.4
		c-0.7,1.7-1.1,3.5-1.1,5.3c0,1.9,0.4,3.7,1.1,5.4c0.7,1.7,1.7,3.1,2.9,4.3c1.2,1.2,2.7,2.2,4.3,2.9c1.7,0.7,3.5,1.1,5.4,1.1
		c2.1,0,4.1-0.4,6-1.3c1.9-0.9,3.5-2.2,4.7-3.8c0.1-0.2,0.3-0.3,0.6-0.3c0.5,0,0.8,0.3,0.8,0.8c0,0.1-0.1,0.3-0.2,0.5
		c-1.4,1.8-3.1,3.1-5.2,4.2s-4.3,1.5-6.7,1.5c-2.1,0-4.1-0.4-5.9-1.2c-1.9-0.8-3.5-1.9-4.8-3.3c-1.4-1.4-2.5-3-3.3-4.8
		c-0.8-1.9-1.2-3.8-1.2-5.9c0-1.6,0.2-3.1,0.7-4.5c0.5-1.5,1.1-2.8,1.9-4c0.8-1.2,1.8-2.3,2.9-3.3c1.1-1,2.4-1.7,3.8-2.3
		c0.9-0.4,1.9-0.7,2.9-0.9c1-0.2,2-0.3,3-0.3c2.1,0,4.1,0.4,6,1.2c1.9,0.8,3.6,1.9,4.9,3.3c0.3,0.3,0.4,0.4,0.5,0.6
		c0,0.1,0.1,0.2,0.1,0.4c0,0.4-0.2,0.7-0.7,0.7c-0.1,0-0.2,0-0.3-0.1c-0.1,0-0.3-0.2-0.5-0.5c-1.3-1.3-2.8-2.3-4.5-3
		C482.1,288.7,480.4,288.3,478.5,288.3z"/>
	<path class="st5" d="M518.3,316.2c0.1,0.2,0.1,0.4,0,0.6c-0.1,0.2-0.2,0.3-0.4,0.4c-0.2,0.1-0.4,0.1-0.6,0
		c-0.2-0.1-0.3-0.2-0.4-0.4l-4.3-9.8h-15.3l-4.2,9.8c-0.1,0.2-0.2,0.3-0.4,0.4c-0.2,0.1-0.4,0.1-0.6,0c-0.2-0.1-0.3-0.2-0.4-0.4
		c-0.1-0.2-0.1-0.4,0-0.6l12.5-28.9c0.2-0.4,0.4-0.5,0.8-0.5c0.3,0,0.6,0.2,0.7,0.6L518.3,316.2z M498.1,305.5H512l-6.9-16.1
		L498.1,305.5z"/>
	<path class="st5" d="M524.7,287.5c0-0.5,0.3-0.8,0.8-0.8h8.2c1.1,0,2.1,0.2,3,0.6c1,0.4,1.8,1,2.5,1.7c0.7,0.7,1.3,1.5,1.7,2.5
		c0.4,0.9,0.6,1.9,0.6,3c0,1.1-0.2,2.1-0.6,3c-0.4,0.9-1,1.8-1.7,2.5c-0.7,0.7-1.5,1.3-2.5,1.7c-0.9,0.4-1.9,0.6-3,0.6l8.7,13.8
		c0.3,0.4,0.2,0.8-0.2,1.1c-0.2,0.1-0.4,0.2-0.6,0.1c-0.2-0.1-0.4-0.2-0.5-0.3l-9.3-14.6h-5.7v14.2c0,0.5-0.3,0.8-0.8,0.8
		c-0.5,0-0.8-0.3-0.8-0.8V287.5z M526.2,288.3v12.5h7.5c0.9,0,1.7-0.2,2.5-0.5c0.8-0.3,1.4-0.8,2-1.3c0.6-0.6,1-1.2,1.3-2
		c0.3-0.8,0.5-1.6,0.5-2.4c0-0.9-0.2-1.7-0.5-2.5c-0.3-0.7-0.8-1.4-1.3-2c-0.6-0.6-1.2-1-2-1.3c-0.8-0.3-1.6-0.5-2.5-0.5H526.2z"/>
	<path class="st5" d="M573.3,302.1c0,2.1-0.4,4.1-1.2,5.9c-0.8,1.9-1.9,3.5-3.3,4.8c-1.4,1.4-3,2.5-4.9,3.3c-1.9,0.8-3.9,1.2-6,1.2
		h-8.7c-0.2,0-0.4-0.1-0.5-0.2c-0.2-0.1-0.2-0.3-0.2-0.6v-29c0-0.2,0.1-0.4,0.2-0.6c0.2-0.1,0.3-0.2,0.5-0.2h8.7
		c2.1,0,4.1,0.4,6,1.2c1.9,0.8,3.5,1.9,4.9,3.3c1.4,1.4,2.5,3,3.3,4.9C572.9,298,573.3,300,573.3,302.1z M550.1,288.3v27.5h8
		c1.9,0,3.7-0.4,5.3-1.1c1.7-0.7,3.1-1.7,4.4-2.9c1.2-1.2,2.2-2.7,2.9-4.4c0.7-1.7,1.1-3.4,1.1-5.3c0-1.9-0.4-3.8-1.1-5.4
		c-0.7-1.7-1.7-3.1-2.9-4.4c-1.2-1.2-2.7-2.2-4.4-2.9c-1.7-0.7-3.5-1.1-5.3-1.1H550.1z"/>
</g>
<g>
	<path class="st4" d="M391.2,333.4c0-0.1,0-0.2,0.1-0.2c0.1-0.1,0.2-0.1,0.3-0.1c0.1,0,0.3,0,0.3,0.1c0.1,0.1,0.1,0.1,0.1,0.2v12.2
		h7.7c0.3,0,0.4,0.1,0.4,0.4c0,0.1,0,0.2-0.1,0.2c-0.1,0.1-0.2,0.1-0.3,0.1h-8.2c-0.1,0-0.2,0-0.3-0.1c0-0.1-0.1-0.1-0.1-0.2V333.4z
		"/>
	<path class="st4" d="M421.2,345.7c0.1,0.1,0.1,0.2,0,0.2c0,0.1-0.1,0.1-0.2,0.2c-0.1,0-0.2,0-0.4,0c-0.1,0-0.2-0.1-0.2-0.2
		l-2.5-4.2h-8.8l-2.4,4.2c0,0.1-0.1,0.1-0.2,0.2c-0.1,0-0.2,0-0.4,0c-0.1,0-0.2-0.1-0.2-0.2c0-0.1,0-0.2,0-0.2l7.2-12.5
		c0.1-0.2,0.2-0.2,0.4-0.2c0.2,0,0.3,0.1,0.4,0.2L421.2,345.7z M409.5,341.1h8.1l-4-6.9L409.5,341.1z"/>
	<path class="st4" d="M433.3,332.9c0.3,0,0.4,0.1,0.4,0.3c0,0.2-0.1,0.3-0.4,0.3h-4.6v12.3c0,0.2-0.1,0.3-0.4,0.3
		c-0.3,0-0.4-0.1-0.4-0.3v-12.3h-4.6c-0.3,0-0.4-0.1-0.4-0.3c0-0.2,0.1-0.3,0.4-0.3H433.3z"/>
	<path class="st4" d="M451.2,345.7c0.1,0.1,0.1,0.2,0,0.2c0,0.1-0.1,0.1-0.2,0.2c-0.1,0-0.2,0-0.4,0c-0.1,0-0.2-0.1-0.2-0.2
		l-2.5-4.2h-8.8l-2.4,4.2c0,0.1-0.1,0.1-0.2,0.2c-0.1,0-0.2,0-0.4,0c-0.1,0-0.2-0.1-0.2-0.2c0-0.1,0-0.2,0-0.2l7.2-12.5
		c0.1-0.2,0.2-0.2,0.4-0.2c0.2,0,0.3,0.1,0.4,0.2L451.2,345.7z M439.5,341.1h8.1l-4-6.9L439.5,341.1z"/>
	<path class="st4" d="M459.8,333.3c0-0.1,0.1-0.2,0.3-0.3c0.2,0,0.4,0,0.5,0.2L467,345l6.3-11.7c0.1-0.2,0.3-0.2,0.5-0.2
		s0.3,0.1,0.4,0.3l2.4,12.5c0,0.2-0.1,0.3-0.4,0.4c-0.3,0-0.4-0.1-0.5-0.3l-2.1-11.4l-6.1,11.4c-0.1,0.2-0.2,0.2-0.3,0.2
		s-0.3,0-0.3-0.1c-0.1,0-0.1-0.1-0.2-0.2l-6.1-11.4l-2.1,11.4c-0.1,0.2-0.2,0.3-0.5,0.3c-0.3,0-0.4-0.2-0.4-0.4L459.8,333.3z"/>
</g>
<g id="LATAM_2">
	<g>
		<path d="M524.1,500.4h1.9l-1.9,1.9V500.4z M524.1,500.4"/>
		<path d="M527.9,500.4h1.9l-5.8,5.8v-1.9L527.9,500.4z M527.9,500.4"/>
		<path d="M531.8,500.4h1.9l-9.6,9.7v-1.9L531.8,500.4z M531.8,500.4"/>
		<path d="M535.6,500.4h1.9L524.1,514v-1.9L535.6,500.4z M535.6,500.4"/>
		<path d="M539.4,500.4h1.9l-17.3,17.5V516L539.4,500.4z M539.4,500.4"/>
		<path d="M543.3,500.4h1.9l-21.1,21.4v-1.9L543.3,500.4z M543.3,500.4"/>
		<path d="M547.1,500.4h1.9l-24.9,25.3v-1.9L547.1,500.4z M547.1,500.4"/>
		<path d="M550.9,500.4h1.9l-28.8,29.2v-1.9L550.9,500.4z M550.9,500.4"/>
		<path d="M554.8,500.4h1.9l-32.6,33.1v-1.9L554.8,500.4z M554.8,500.4"/>
		<path d="M558.6,500.4h1.9l-36.5,37v-1.9L558.6,500.4z M558.6,500.4"/>
		<path d="M562.5,500.4h1.9l-40.3,40.9v-1.9L562.5,500.4z M562.5,500.4"/>
		<path d="M566.3,500.4h1.9l-44.1,44.7v-1.9L566.3,500.4z M566.3,500.4"/>
		<path d="M570.1,500.4h1.9l-48,48.6v-1.9L570.1,500.4z M570.1,500.4"/>
		<path d="M574,500.4h1.9l-51.8,52.5V551L574,500.4z M574,500.4"/>
		<path d="M577.8,500.4h1.9l-55.7,56.4v-1.9L577.8,500.4z M577.8,500.4"/>
		<path d="M581.7,500.4h1.9l-59.5,60.3v-1.9L581.7,500.4z M581.7,500.4"/>
		<path d="M585,561.2h-1.9l1.9-1.9V561.2z M585,561.2"/>
		<path d="M581.2,561.2h-1.9l5.8-5.8v1.9L581.2,561.2z M581.2,561.2"/>
		<path d="M577.4,561.2h-1.9l9.6-9.7v1.9L577.4,561.2z M577.4,561.2"/>
		<path d="M573.5,561.2h-1.9l13.4-13.6v1.9L573.5,561.2z M573.5,561.2"/>
		<path d="M569.7,561.2h-1.9l17.3-17.5v1.9L569.7,561.2z M569.7,561.2"/>
		<path d="M565.9,561.2h-1.9l21.1-21.4v1.9L565.9,561.2z M565.9,561.2"/>
		<path d="M562,561.2h-1.9l25-25.3v1.9L562,561.2z M562,561.2"/>
		<path d="M558.2,561.2h-1.9L585,532v1.9L558.2,561.2z M558.2,561.2"/>
		<path d="M554.3,561.2h-1.9l32.6-33.1v1.9L554.3,561.2z M554.3,561.2"/>
		<path d="M550.5,561.2h-1.9l36.5-37v1.9L550.5,561.2z M550.5,561.2"/>
		<path d="M546.7,561.2h-1.9l40.3-40.9v1.9L546.7,561.2z M546.7,561.2"/>
		<path d="M542.8,561.2h-1.9l44.1-44.7v1.9L542.8,561.2z M542.8,561.2"/>
		<path d="M539,561.2h-1.9l48-48.6v1.9L539,561.2z M539,561.2"/>
		<path d="M535.1,561.2h-1.9l51.8-52.5v1.9L535.1,561.2z M535.1,561.2"/>
		<path d="M531.3,561.2h-1.9l55.7-56.4v1.9L531.3,561.2z M531.3,561.2"/>
		<path d="M527.5,561.2h-1.9l59.5-60.3v1.9L527.5,561.2z M527.5,561.2"/>
		<path d="M548.6,509.7"/>
		<path class="st6" d="M565.4,500.9"/>
		<path d="M567.9,536.9"/>
	</g>
	<g>
		<path class="st7" d="M546.8,528.2h-10.9v-19h5v14.6h5.9V528.2z"/>
		<path class="st7" d="M564.7,528.2h-5.4l-1.5-3.7h-6.1l-1.5,3.7h-5.3l7.9-19h4.1L564.7,528.2z"/>
		<path class="st7" d="M574.4,513.6h-3.6v14.6h-5v-14.6h-3.6v-4.3h12.2V513.6z"/>
		<path class="st7" d="M554.4,553.5H549l-1.5-3.7h-6.1l-1.5,3.7h-5.3l7.9-19h4.1L554.4,553.5z"/>
		<path class="st7" d="M573.3,553.5h-5l0.1-9.8l-3.7,9.8H561l-3.7-9.8l0.1,9.8h-5v-19h6l4.4,11.7l4.4-11.7h6V553.5z"/>
	</g>
</g>
<path class="st4" d="M488.1,430.6l-0.3,0l7.2,11l0.1,0l14.2-0.1l7.2-10.7l0-0.1l-7.2-11l-0.2,0.2l-1.7,2.4l5.5,8.3l-5.4,8.1
	l-10.7,0.1l-5.5-8.3L488.1,430.6z M494.9,446.9l1.8-2.7l3.4,0.1l0.2,0l-3.6,5.4l-7.3,0l-3.7-5.6l3.6-5.4l0.1,0.1l1.8,2.5l-1.8,2.7
	l1.8,2.8L494.9,446.9z M462.4,436.3l-0.1,0.1l-3.6-5.4l3.7-5.6l7.3,0l3.6,5.4l-0.2,0l-3.4,0.1l-1.8-2.7l-3.7,0l-1.8,2.8l1.8,2.7
	L462.4,436.3z M459,441.8l-7.2-11l0-0.1l7.2-10.7l14.2-0.1l0.1,0l7.2,11l-0.3,0l-3.2,0.1l-5.5-8.3l-10.7,0.1l-5.4,8.1l5.5,8.3
	l-1.7,2.4L459,441.8z M592.9,414.2l-1.6-2.7l-0.1-0.1h7.1l3.7,5.6l-3.7,5.6h-7.1l0.1-0.1l1.6-2.7h3.6l1.8-2.8l-1.8-2.8H592.9z
	 M584,427.8l-1.7-2.4l5.5-8.3l-5.4-8.1l-10.7-0.1l-5.5,8.3l-3.2-0.1l-0.3,0l7.2-11l0.1,0l14.2,0.1l7.2,10.7l0,0.1l-7.2,11L584,427.8
	z M564.4,436.3l-0.1,0.1l-3.6-5.4l3.7-5.6l7.3,0l3.6,5.4l-0.2,0l-3.4,0.1l-1.8-2.7l-3.7,0l-1.8,2.8l1.8,2.7L564.4,436.3z M561,441.8
	l-7.2-11l0-0.1l7.2-10.7l14.2-0.1l0.1,0l7.2,11l-0.3,0l-3.2,0.1l-5.5-8.3l-10.7,0.1l-5.4,8.1l5.5,8.3l-1.7,2.4L561,441.8z
	 M386.1,430.6l3.2-0.1l5.5,8.3l10.7-0.1l5.4-8.1l-5.5-8.3l1.7-2.4l0.2-0.2l7.2,11l0,0.1l-7.2,10.7l-14.2,0.1l-0.1,0l-7.2-11
	L386.1,430.6z M281.8,406.3l-0.1-0.2h14.5l0,0.1l7,10.8l-7,10.8l0,0.1h-14.5l0.1-0.2l1.5-2.5h11l5.3-8.1l-5.3-8.1h-11L281.8,406.3z
	 M286.9,414.2l-1.6-2.7l-0.1-0.1h7.1l3.7,5.6l-3.7,5.6h-7.1l0.1-0.1l1.6-2.7h3.6l1.8-2.8l-1.8-2.8H286.9z M273.1,447.1l1.6,2.7
	l0.1,0.1h-7.1l-3.7-5.6l3.7-5.6h7.1l-0.1,0.1l-1.6,2.7h-3.6l-1.8,2.8l1.8,2.8H273.1z M282.1,382l1.7,2.4l-5.5,8.3l5.4,8.1l10.7,0.1
	l5.5-8.3l3.2,0.1l0.3,0l-7.2,11l-0.1,0l-14.2-0.1l-7.2-10.7l0-0.1l7.2-10.9l0.1,0L282.1,382z M393,446.9l1.8-2.7l3.4,0.1l0.2,0
	l-3.6,5.4l-7.3,0l-3.7-5.6l3.6-5.4l0.1,0.1l1.8,2.5l-1.8,2.7l1.8,2.8L393,446.9z M282.1,433.6l1.7,2.4l-5.5,8.3l5.4,8.1l10.7,0.1
	l5.5-8.3l3.2,0.1l0.3,0l-7.2,11l-0.1,0l-14.2-0.1l-7.2-10.7l0-0.1l7.2-11L282.1,433.6z M357,441.8l-7.2-11l0-0.1l7.2-10.7l14.2-0.1
	l0.1,0l7.2,11l-0.3,0l-3.2,0.1l-5.5-8.3l-10.7,0.1l-5.4,8.1l5.5,8.3l-1.7,2.4L357,441.8z M269.3,430.9l-0.2,0l-3.4,0.1l-1.8-2.7
	l-3.7,0l-0.4,0.6v-3.5l5.9,0L269.3,430.9z M485.8,427.6l1.5-2.5h11l5.3-8.1l-5.3-8.1h-11l-1.5-2.5l-0.1-0.2h14.5l0,0.1l7,10.8
	l-7,10.8l0,0.1h-14.5L485.8,427.6z M273.1,395.6l1.6,2.7l0.1,0.1h-7.1l-3.7-5.6l3.7-5.6h7.1l-0.1,0.1l-1.6,2.7h-3.6l-1.8,2.8
	l1.8,2.8H273.1z M490.9,414.2l-1.6-2.7l-0.1-0.1h7.1l3.7,5.6l-3.7,5.6h-7.1l0.1-0.1l1.6-2.7h3.6l1.8-2.8l-1.8-2.8H490.9z
	 M481.9,427.8l-1.7-2.4l5.5-8.3l-5.4-8.1l-10.7-0.1l-5.5,8.3l-3.2-0.1l-0.3,0l7.2-11l0.1,0l14.2,0.1l7.2,10.7l0,0.1l-7.2,11
	L481.9,427.8z M505.8,425.2l0.1-0.1l3.6,5.4l-3.7,5.6l-7.3,0l-3.6-5.4l0.2,0l3.4-0.1l1.8,2.7l3.7,0l1.8-2.8l-1.8-2.7L505.8,425.2z
	 M458,394.2l7.2,11l0,0.1L458,416l-14.2,0.1l-0.1,0l-7.2-11l0.3,0l3.2-0.1l5.5,8.3l10.7-0.1l5.4-8.1l-5.5-8.3l1.7-2.4L458,394.2z
	 M443.9,421.2l1.8-2.7l3.4,0.1l0.2,0l-3.6,5.4l-7.3,0l-3.7-5.6l3.6-5.4l0.1,0.1l1.8,2.5l-1.8,2.7l1.8,2.8L443.9,421.2z M454.5,399.7
	l0.1-0.1l3.6,5.4l-3.7,5.6l-7.3,0l-3.6-5.4l0.2,0l3.4-0.1l1.8,2.7l3.7,0l1.8-2.8l-1.8-2.7L454.5,399.7z M513.5,410.4l-0.1,0.1
	l-3.6-5.4l3.7-5.6l7.3,0l3.6,5.4l-0.2,0l-3.4,0.1l-1.8-2.7l-3.7,0l-1.8,2.8l1.8,2.7L513.5,410.4z M528,421.4l1.6,2.7l0.1,0.1h-7.1
	l-3.7-5.6l3.7-5.6h7.1l-0.1,0.1l-1.6,2.7h-3.6l-1.8,2.8l1.8,2.8H528z M545.9,421.2l1.8-2.7l3.4,0.1l0.2,0l-3.6,5.4l-7.3,0l-3.7-5.6
	l3.6-5.4l0.1,0.1l1.8,2.5l-1.8,2.7l1.8,2.8L545.9,421.2z M575.1,414.5l-1.8,2.7l-3.4-0.1l-0.2,0l3.6-5.4l7.3,0l3.7,5.6l-3.6,5.4
	l-0.1-0.1l-1.8-2.5l1.8-2.7l-1.8-2.8L575.1,414.5z M560,394.2l7.2,11l0,0.1l-7.2,10.7l-14.2,0.1l-0.1,0l-7.2-11l0.3,0l3.2-0.1
	l5.5,8.3l10.7-0.1l5.4-8.1l-5.5-8.3l1.7-2.4L560,394.2z M551.1,429.6l-14.2-0.1l-7.2-10.7l0-0.1l7.2-11l0.2,0.2l1.7,2.4l-5.5,8.3
	l5.4,8.1l10.7,0.1l5.5-8.3l3.2,0.1l0.3,0L551.1,429.6L551.1,429.6z M531.2,405l-3.2,0.1l-5.5-8.3l-10.7,0.1l-5.4,8.1l5.5,8.3
	l-1.7,2.4l-0.2,0.2l-7.2-11l0-0.1l7.2-10.7l14.2-0.1l0.1,0l7.2,11L531.2,405z M524.2,389l-1.8,2.7l-3.4-0.1l-0.2,0l3.6-5.4l7.3,0
	l3.7,5.6l-3.6,5.4l-0.1-0.1l-1.8-2.5l1.8-2.7l-1.8-2.8L524.2,389z M556.6,399.7l0.1-0.1l3.6,5.4l-3.7,5.6l-7.3,0l-3.6-5.4l0.2,0
	l3.4-0.1l1.8,2.7l3.7,0l1.8-2.8l-1.8-2.7L556.6,399.7z M518.7,429.4l-7-10.8l7-10.8l0-0.1h14.5l-0.1,0.2l-1.5,2.5h-11l-5.3,8.1
	l5.3,8.1h11l1.5,2.5l0.1,0.2L518.7,429.4L518.7,429.4z M597,446.9l1.8-2.7l3.4,0.1l0.2,0l-3.6,5.4l-7.3,0l-3.7-5.6l3.6-5.4l0.1,0.1
	l1.8,2.5l-1.8,2.7l1.8,2.8L597,446.9z M408,467.2l-7.2-11l0-0.1l7.2-10.7l14.2-0.1l0.1,0l7.2,11l-0.3,0l-3.2,0.1l-5.5-8.3l-10.7,0.1
	l-5.4,8.1l5.5,8.3l-1.7,2.4L408,467.2z M443.9,472.7l1.8-2.7l3.4,0.1l0.2,0l-3.6,5.4l-7.3,0l-3.7-5.6l3.6-5.4l0.1,0.1l1.8,2.5
	l-1.8,2.7l1.8,2.8L443.9,472.7z M411.5,461.7l-0.1,0.1l-3.6-5.4l3.7-5.6l7.3,0l3.6,5.4l-0.2,0l-3.4,0.1l-1.8-2.7l-3.7,0l-1.8,2.8
	l1.8,2.7L411.5,461.7z M335,456.3l3.2-0.1l5.5,8.3l10.7-0.1l5.4-8.1l-5.5-8.3l1.7-2.4l0.2-0.2l7.2,11l0,0.1l-7.2,10.7l-14.2,0.1
	l-0.1,0l-7.2-11L335,456.3z M437,456.3l3.2-0.1l5.5,8.3l10.7-0.1l5.4-8.1l-5.5-8.3l1.7-2.4l0.2-0.2l7.2,11l0,0.1l-7.2,10.7
	l-14.2,0.1l-0.1,0l-7.2-11L437,456.3z M539,456.3l3.2-0.1l5.5,8.3l10.7-0.1l5.4-8.1l-5.5-8.3l1.7-2.4l0.2-0.2l7.2,11l0,0.1
	l-7.2,10.7l-14.2,0.1l-0.1,0l-7.2-11L539,456.3z M545.9,472.7l1.8-2.7l3.4,0.1l0.2,0l-3.6,5.4l-7.3,0l-3.7-5.6l3.6-5.4l0.1,0.1
	l1.8,2.5l-1.8,2.7l1.8,2.8L545.9,472.7z M513.5,461.7l-0.1,0.1l-3.6-5.4l3.7-5.6l7.3,0l3.6,5.4l-0.2,0l-3.4,0.1l-1.8-2.7l-3.7,0
	l-1.8,2.8l1.8,2.7L513.5,461.7z M306,467.2l-7.2-11l0-0.1l7.2-10.7l14.2-0.1l0.1,0l7.2,11l-0.3,0l-3.2,0.1l-5.5-8.3l-10.7,0.1
	l-5.4,8.1l5.5,8.3l-1.7,2.4L306,467.2z M264,457.6l14.2,0.1l7.2,10.7l0,0.1l-7.1,10.8l-0.2,0l-0.1-0.1l-1.7-2.4l5.5-8.3l-5.4-8.1
	l-10.7-0.1l-5.5,8.3l-0.3,0v-5L264,457.6L264,457.6z M269.1,465.9l-1.8,2.7l-3.4-0.1l-0.2,0l3.6-5.4l7.3,0l3.7,5.6l-3.6,5.4
	l-0.1-0.1l-1.8-2.5l1.8-2.7l-1.8-2.8L269.1,465.9z M301.8,475.9L301.8,475.9l2.8,3.3l-3.7,0l-0.9-1.2L301.8,475.9z M278.2,433.6
	l-1.5,2.5h-11l-5.3,8.1l5.3,8.1h11l1.5,2.5l0.1,0.2h-14.5l0-0.1l-3.9-6v-9.6l3.9-6l0-0.1h14.5L278.2,433.6z M342,472.7l1.8-2.7
	l3.4,0.1l0.2,0l-3.6,5.4l-7.3,0l-3.7-5.6l3.6-5.4l0.1,0.1l1.8,2.5l-1.8,2.7l1.8,2.8L342,472.7z M312.1,381.9l-6.8,8.2l-14.2,0.1
	l-0.1,0l-6.7-8.2l3.6,0l5,6l10.7,0l5-6L312.1,381.9z M602.1,455.2l-14.2-0.1l-7.2-10.7l0-0.1l7.2-11l0.2,0.2l1.7,2.4l-5.5,8.3
	l5.4,8.1l10.7,0.1l5.5-8.3l0.2,0v5.1L602.1,455.2L602.1,455.2z M309.5,461.7l-0.1,0.1l-3.6-5.4l3.7-5.6l7.3,0l3.6,5.4l-0.2,0
	l-3.4,0.1l-1.8-2.7l-3.7,0l-1.8,2.8l1.8,2.7L309.5,461.7z M281.8,479.1l1.5-2.5h11l5.3-8.1l-5.3-8.1h-11l-1.5-2.5l-0.1-0.2h14.5
	l0,0.1l7,10.8l-7,10.7l-14.5,0L281.8,479.1z M414.1,381.9l-6.8,8.2l-14.2,0.1l-0.1,0l-6.8-8.2l3.6,0l4.9,6l10.7,0l5-6L414.1,381.9z
	 M516.1,381.9l-6.8,8.2l-14.2,0.1l-0.1,0l-6.8-8.2l3.6,0l4.9,6l10.7,0l5-6L516.1,381.9z M406.9,381.9l-3.1,3.8l-7.3,0l-3.1-3.8
	l3.6,0l1.3,1.5l3.7,0l1.2-1.5L406.9,381.9z M455.9,381.9l5,6l-1.7,1.9l-0.2,0.2l-6.7-8.1L455.9,381.9z M304.9,381.9l-3.1,3.8l-7.3,0
	l-3.1-3.8l3.7,0l1.2,1.5l3.7,0l1.3-1.5L304.9,381.9z M557.9,381.9l5,6l-1.7,1.9l-0.2,0.2l-6.7-8.1L557.9,381.9z M587.8,427.6
	l1.5-2.5h11l5.3-8.1l-5.3-8.1h-11l-1.5-2.5l-0.1-0.2h14.5l0,0.1l3.9,6v9.6l-3.9,6l0,0.1h-14.5L587.8,427.6z M596.9,430.6l0.2,0
	l3.4-0.1l1.8,2.7l3.7,0l0.2-0.3v3.1l-5.7,0L596.9,430.6z M602.1,403.7l-14.2-0.1l-7.2-10.7l0-0.1l7.2-10.9l0.1,0l0.1,0.1l1.7,2.4
	l-5.5,8.3l5.4,8.1l10.7,0.1l5.5-8.3l0.2,0v5.1L602.1,403.7L602.1,403.7z M508.9,381.9l-3.1,3.8l-7.3,0l-3.1-3.8l3.7,0l1.2,1.5l3.7,0
	l1.3-1.5L508.9,381.9z M473.1,414.5l-1.8,2.7l-3.4-0.1l-0.2,0l3.6-5.4l7.3,0l3.7,5.6l-3.6,5.4l-0.1-0.1l-1.8-2.5l1.8-2.7l-1.8-2.8
	L473.1,414.5z M597,395.3l1.8-2.7l3.4,0.1l0.2,0l-3.6,5.4l-7.3,0l-3.7-5.6l3.6-5.4l0.1,0.1l1.8,2.5l-1.8,2.7l1.8,2.8L597,395.3z
	 M360.4,436.3l-0.1,0.1l-3.6-5.4l3.7-5.6l7.3,0l3.6,5.4l-0.2,0l-3.4,0.1l-1.8-2.7l-3.7,0l-1.8,2.8l1.8,2.7L360.4,436.3z
	 M556.7,450.9l0.1-0.1l3.6,5.4l-3.7,5.6l-7.3,0l-3.6-5.4l0.2,0l3.4-0.1l1.8,2.7l3.7,0l1.8-2.8l-1.8-2.7L556.7,450.9z M569.8,455
	l-7-10.8l7-10.8l0-0.1h14.5l-0.1,0.2l-1.5,2.5h-11l-5.3,8.1l5.3,8.1h11l1.5,2.5l0.1,0.2L569.8,455L569.8,455z M500.1,455.2
	l-14.2-0.1l-7.2-10.7l0-0.1l7.2-11l0.2,0.2l1.7,2.4l-5.5,8.3l5.4,8.1l10.7,0.1l5.5-8.3l3.2,0.1l0.3,0L500.1,455.2L500.1,455.2z
	 M579.1,447.1l1.6,2.7l0.1,0.1h-7.1l-3.7-5.6l3.7-5.6h7.1l-0.1,0.1l-1.6,2.7h-3.6l-1.8,2.8l1.8,2.8H579.1z M536.9,453.5l1.5-2.5h11
	l5.3-8.1l-5.3-8.1h-11l-1.5-2.5l-0.1-0.2h14.5l0,0.1l7,10.8l-7,10.8l0,0.1h-14.5L536.9,453.5z M524,440.1l-1.8,2.7l-3.4-0.1l-0.2,0
	l3.6-5.4l7.3,0l3.7,5.6l-3.6,5.4l-0.1-0.1l-1.8-2.5l1.8-2.7l-1.8-2.8L524,440.1z M542,440.1l-1.6-2.7l-0.1-0.1h7.1l3.7,5.6l-3.7,5.6
	h-7.1l0.1-0.1l1.6-2.7h3.6l1.8-2.8l-1.8-2.8H542z M532.9,453.4l-1.7-2.4l5.5-8.3l-5.4-8.1l-10.7-0.1l-5.5,8.3l-3.2-0.1l-0.3,0
	l7.2-11l0.1,0l14.2,0.1l7.2,10.7l0,0.1l-7.2,11L532.9,453.4z M579.1,395.6l1.6,2.7l0.1,0.1h-7.1l-3.7-5.6l3.7-5.6h7.1l-0.1,0.1
	l-1.6,2.7h-3.6l-1.8,2.8l1.8,2.8H579.1z M489.4,387.3l1.8,2.5l-1.8,2.7l1.8,2.8l3.7,0l1.8-2.7l3.4,0.1l0.2,0l-3.6,5.4l-7.3,0
	l-3.7-5.6l3.6-5.4L489.4,387.3z M534,381.9l6.4,9.6l0,0.1l-7.2,11l-0.2-0.2l-1.7-2.4l5.5-8.3l-5.4-8.1l-10.7-0.1l-5.5,8.3l-3.2-0.1
	l-0.3,0l6.4-9.8L534,381.9z M486.1,382l1.7,2.4l-5.5,8.3l5.4,8.1l10.7,0.1l5.5-8.3l3.2,0.1l0.3,0l-7.2,11l-0.1,0l-14.2-0.1
	l-7.2-10.7l0-0.1l7.2-10.9l0.1,0L486.1,382z M477,395.6l1.6,2.7l0.1,0.1h-7.1l-3.7-5.6l3.7-5.6h7.1l-0.1,0.1L477,390h-3.6l-1.8,2.8
	l1.8,2.8H477z M564.4,385.7L564.4,385.7l-3.2-3.7l3.7,0l1.4,1.7L564.4,385.7z M584.2,382.1l-1.5,2.5h-11l-5.3,8.1l5.3,8.1h11
	l1.5,2.5l0.1,0.2h-14.5l0-0.1l-7-10.8l7.1-10.9l14.4,0L584.2,382.1z M542,388.7l-1.6-2.7l-0.1-0.1h7.1l3.7,5.6l-3.7,5.6h-7.1
	l0.1-0.1l1.6-2.7h3.6l1.8-2.8l-1.8-2.8H542z M552.1,381.9l6.2,9.5l-7,10.8l0,0.1h-14.5l0.1-0.2l1.5-2.5h11l5.3-8.1l-5.3-8.1h-11
	l-0.9-1.4L552.1,381.9z M422,440.1l-1.8,2.7l-3.4-0.1l-0.2,0l3.6-5.4l7.3,0l3.7,5.6l-3.6,5.4l-0.1-0.1l-1.8-2.5l1.8-2.7l-1.8-2.8
	L422,440.1z M332.9,453.5l1.5-2.5h11l5.3-8.1l-5.3-8.1h-11l-1.5-2.5l-0.1-0.2h14.5l0,0.1l7,10.8l-7,10.8l0,0.1h-14.5L332.9,453.5z
	 M338,440.1l-1.6-2.7l-0.1-0.1h7.1l3.7,5.6l-3.7,5.6h-7.1l0.1-0.1l1.6-2.7h3.6l1.8-2.8l-1.8-2.8H338z M352.7,450.9l0.1-0.1l3.6,5.4
	l-3.7,5.6l-7.3,0l-3.6-5.4l0.2,0l3.4-0.1l1.8,2.7l3.7,0l1.8-2.8l-1.8-2.7L352.7,450.9z M328.9,453.4l-1.7-2.4l5.5-8.3l-5.4-8.1
	l-10.7-0.1l-5.5,8.3l-3.2-0.1l-0.3,0l7.2-11l0.1,0l14.2,0.1l7.2,10.7l0,0.1l-7.2,11L328.9,453.4z M365.8,455l-7-10.8l7-10.8l0-0.1
	h14.5l-0.1,0.2l-1.5,2.5h-11l-5.3,8.1l5.3,8.1h11l1.5,2.5l0.1,0.2L365.8,455L365.8,455z M320,440.1l-1.8,2.7l-3.4-0.1l-0.2,0
	l3.6-5.4l7.3,0l3.7,5.6l-3.6,5.4l-0.1-0.1l-1.8-2.5l1.8-2.7l-1.8-2.8L320,440.1z M286.9,465.8l-1.6-2.7l-0.1-0.1h7.1l3.7,5.6
	l-3.7,5.6h-7.1l0.1-0.1l1.6-2.7h3.6l1.8-2.8l-1.8-2.8H286.9z M375.1,447.1l1.6,2.7l0.1,0.1h-7.1l-3.7-5.6l3.7-5.6h7.1l-0.1,0.1
	l-1.6,2.7h-3.6l-1.8,2.8l1.8,2.8H375.1z M454.7,450.9l0.1-0.1l3.6,5.4l-3.7,5.6l-7.3,0l-3.6-5.4l0.2,0l3.4-0.1l1.8,2.7l3.7,0
	l1.8-2.8l-1.8-2.7L454.7,450.9z M434.9,453.5l1.5-2.5h11l5.3-8.1l-5.3-8.1h-11l-1.5-2.5l-0.1-0.2h14.5l0,0.1l7,10.8l-7,10.8l0,0.1
	h-14.5L434.9,453.5z M440,440.1l-1.6-2.7l-0.1-0.1h7.1l3.7,5.6l-3.7,5.6h-7.1l0.1-0.1l1.6-2.7h3.6l1.8-2.8l-1.8-2.8H440z M477,447.1
	l1.6,2.7l0.1,0.1h-7.1l-3.7-5.6l3.7-5.6h7.1l-0.1,0.1l-1.6,2.7h-3.6l-1.8,2.8l1.8,2.8H477z M467.8,455l-7-10.8l7-10.8l0-0.1h14.5
	l-0.1,0.2l-1.5,2.5h-11l-5.3,8.1l5.3,8.1h11l1.5,2.5l0.1,0.2L467.8,455L467.8,455z M430.8,453.4l-1.7-2.4l5.5-8.3l-5.4-8.1
	l-10.7-0.1l-5.5,8.3l-3.2-0.1l-0.3,0l7.2-11l0.1,0l14.2,0.1l7.2,10.7l0,0.1l-7.2,11L430.8,453.4z M398.1,455.2l-14.2-0.1l-7.2-10.7
	l0-0.1l7.2-11l0.2,0.2l1.7,2.4l-5.5,8.3l5.4,8.1l10.7,0.1l5.5-8.3l3.2,0.1l0.3,0L398.1,455.2L398.1,455.2z M482.1,382.1l-1.5,2.5
	h-11l-5.3,8.1l5.3,8.1h11l1.5,2.5l0.1,0.2h-14.5l0-0.1l-7-10.8l7-10.8l14.5,0L482.1,382.1z M387.4,387.3l1.8,2.5l-1.8,2.7l1.8,2.8
	l3.7,0l1.8-2.7l3.4,0.1l0.2,0l-3.6,5.4l-7.3,0l-3.7-5.6l3.6-5.4L387.4,387.3z M356,394.2l7.2,11l0,0.1l-7.2,10.7l-14.2,0.1l-0.1,0
	l-7.2-11l0.3,0l3.2-0.1l5.5,8.3l10.7-0.1l5.4-8.1l-5.5-8.3l1.7-2.4L356,394.2z M380,427.8l-1.7-2.4l5.5-8.3l-5.4-8.1l-10.7-0.1
	l-5.5,8.3l-3.2-0.1l-0.3,0l7.2-11l0.1,0l14.2,0.1l7.2,10.7l0,0.1l-7.2,11L380,427.8z M342,421.2l1.8-2.7l3.4,0.1l0.2,0l-3.6,5.4
	l-7.3,0l-3.7-5.6l3.6-5.4l0.1,0.1l1.8,2.5l-1.8,2.7l1.8,2.8L342,421.2z M352.6,399.7l0.1-0.1l3.6,5.4l-3.7,5.6l-7.3,0l-3.6-5.4
	l0.2,0l3.4-0.1l1.8,2.7l3.7,0l1.8-2.8l-1.8-2.7L352.6,399.7z M371.1,414.5l-1.8,2.7l-3.4-0.1l-0.2,0l3.6-5.4l7.3,0l3.7,5.6l-3.6,5.4
	l-0.1-0.1l-1.8-2.5l1.8-2.7l-1.8-2.8L371.1,414.5z M324,421.4l1.6,2.7l0.1,0.1h-7.1l-3.7-5.6l3.7-5.6h7.1l-0.1,0.1l-1.6,2.7h-3.6
	l-1.8,2.8l1.8,2.8H324z M314.7,429.4l-7-10.8l7-10.8l0-0.1h14.5l-0.1,0.2l-1.5,2.5h-11l-5.3,8.1l5.3,8.1h11l1.5,2.5l0.1,0.2
	L314.7,429.4L314.7,429.4z M347.1,429.6l-14.2-0.1l-7.2-10.7l0-0.1l7.2-11l0.2,0.2l1.7,2.4l-5.5,8.3l5.4,8.1l10.7,0.1l5.5-8.3
	l3.2,0.1l0.3,0L347.1,429.6L347.1,429.6z M403.8,425.2l0.1-0.1l3.6,5.4l-3.7,5.6l-7.3,0l-3.6-5.4l0.2,0l3.4-0.1l1.8,2.7l3.7,0
	l1.8-2.8l-1.8-2.7L403.8,425.2z M426,421.4l1.6,2.7l0.1,0.1h-7.1l-3.7-5.6l3.7-5.6h7.1l-0.1,0.1l-1.6,2.7h-3.6l-1.8,2.8l1.8,2.8H426
	z M429.2,405l-3.2,0.1l-5.5-8.3l-10.7,0.1l-5.4,8.1l5.5,8.3l-1.7,2.4l-0.2,0.2l-7.2-11l0-0.1l7.2-10.7l14.2-0.1l0.1,0l7.2,11
	L429.2,405z M422.1,389l-1.8,2.7l-3.4-0.1l-0.2,0l3.6-5.4l7.3,0l3.7,5.6l-3.6,5.4l-0.1-0.1l-1.8-2.5l1.8-2.7l-1.8-2.8L422.1,389z
	 M462.4,385.7L462.4,385.7l-3.2-3.7l3.7,0l1.4,1.7L462.4,385.7z M411.5,410.4l-0.1,0.1l-3.6-5.4l3.7-5.6l7.3,0l3.6,5.4l-0.2,0
	l-3.4,0.1l-1.8-2.7l-3.7,0l-1.8,2.8l1.8,2.7L411.5,410.4z M383.8,427.6l1.5-2.5h11l5.3-8.1l-5.3-8.1h-11l-1.5-2.5l-0.1-0.2h14.5
	l0,0.1l7,10.8l-7,10.8l0,0.1h-14.5L383.8,427.6z M388.9,414.2l-1.6-2.7l-0.1-0.1h7.1l3.7,5.6l-3.7,5.6h-7.1l0.1-0.1l1.6-2.7h3.6
	l1.8-2.8l-1.8-2.8H388.9z M320,389l-1.8,2.7l-3.4-0.1l-0.2,0l3.6-5.4l7.3,0l3.7,5.6l-3.6,5.4l-0.1-0.1l-1.8-2.5l1.8-2.7l-1.8-2.8
	L320,389z M416.7,429.4l-7-10.8l7-10.8l0-0.1h14.5l-0.1,0.2l-1.5,2.5h-11l-5.3,8.1l5.3,8.1h11l1.5,2.5l0.1,0.2L416.7,429.4
	L416.7,429.4z M375.1,395.6l1.6,2.7l0.1,0.1h-7.1l-3.7-5.6l3.7-5.6h7.1l-0.1,0.1l-1.6,2.7h-3.6l-1.8,2.8l1.8,2.8H375.1z
	 M449.1,429.6l-14.2-0.1l-7.2-10.7l0-0.1l7.2-11l0.2,0.2l1.7,2.4l-5.5,8.3l5.4,8.1l10.7,0.1l5.5-8.3l3.2,0.1l0.3,0L449.1,429.6
	L449.1,429.6z M384.1,382l1.7,2.4l-5.5,8.3l5.4,8.1l10.7,0.1l5.5-8.3l3.2,0.1l0.3,0l-7.2,11l-0.1,0l-14.2-0.1l-7.2-10.7l0-0.1
	l7.2-10.9l0.1,0L384.1,382z M327.2,405l-3.2,0.1l-5.5-8.3l-10.7,0.1l-5.4,8.1l5.5,8.3l-1.7,2.4l-0.2,0.2l-7.2-11l0-0.1l7.2-10.7
	l14.2-0.1l0.1,0l7.2,11L327.2,405z M440,388.7l-1.6-2.7l-0.1-0.1h7.1l3.7,5.6l-3.7,5.6h-7.1l0.1-0.1l1.6-2.7h3.6l1.8-2.8l-1.8-2.8
	H440z M431.9,381.9l6.4,9.6l0,0.1l-7.2,11l-0.2-0.2l-1.7-2.4l5.5-8.3l-5.4-8.1l-10.7-0.1l-5.5,8.3l-3.2-0.1l-0.3,0l6.4-9.8
	L431.9,381.9z M450.1,381.9l6.2,9.5l-7,10.8l0,0.1h-14.5l0.1-0.2l1.5-2.5h11l5.3-8.1l-5.3-8.1h-11l-0.9-1.4L450.1,381.9z
	 M380.2,382.1l-1.5,2.5h-11l-5.3,8.1l5.3,8.1h11l1.5,2.5l0.1,0.2h-14.5l0-0.1l-7-10.8l7-10.8l14.5,0L380.2,382.1z M301.8,425.2
	l0.1-0.1l3.6,5.4l-3.7,5.6l-7.3,0l-3.6-5.4l0.2,0l3.4-0.1l1.8,2.7l3.7,0l1.8-2.8l-1.8-2.7L301.8,425.2z M291,446.9l1.8-2.7l3.4,0.1
	l0.2,0l-3.6,5.4l-7.3,0l-3.7-5.6l3.6-5.4l0.1,0.1l1.8,2.5l-1.8,2.7l1.8,2.8L291,446.9z M305.3,441.5l-14.2,0.1l-0.1,0l-7.2-11l0.3,0
	l3.2-0.1l5.5,8.3l10.7-0.1l5.4-8.1l-5.5-8.3l1.7-2.4l0.2-0.2l7.2,11l0,0.1L305.3,441.5z M309.5,410.4l-0.1,0.1l-3.6-5.4l3.7-5.6
	l7.3,0l3.6,5.4l-0.2,0l-3.4,0.1l-1.8-2.7l-3.7,0l-1.8,2.8l1.8,2.7L309.5,410.4z M285.4,387.3l1.8,2.5l-1.8,2.7l1.8,2.8l3.7,0
	l1.8-2.7l3.4,0.1l0.2,0l-3.6,5.4l-7.3,0l-3.7-5.6l3.6-5.4L285.4,387.3z M348.1,381.9l6.2,9.5l-7,10.8l0,0.1h-14.5l0.1-0.2l1.5-2.5
	h11l5.3-8.1l-5.3-8.1h-11l-0.9-1.4L348.1,381.9z M329.8,381.9l6.4,9.6l0,0.1l-7.2,11l-0.2-0.2l-1.7-2.4l5.5-8.3l-5.4-8.1l-10.7-0.1
	l-5.5,8.3l-3.2-0.1l-0.3,0l6.4-9.8L329.8,381.9z M338,388.7l-1.6-2.7l-0.1-0.1h7.1l3.7,5.6l-3.7,5.6h-7.1l0.1-0.1l1.6-2.7h3.6
	l1.8-2.8l-1.8-2.8H338z M459.8,479.3l2.7-3.4l7.3,0l2.6,3.4l-3.7,0l-0.8-1l-3.7,0l-0.8,1L459.8,479.3z M554.6,479.3l6.3-7.9
	l14.2-0.1l0.1,0l6.3,8l-3.6,0l-4.5-5.7l-10.7,0l-4.5,5.7L554.6,479.3z M452.6,479.3l6.3-7.9l14.2-0.1l0.1,0l6.3,8l-3.6,0l-4.5-5.7
	l-10.7,0l-4.5,5.7L452.6,479.3z M561.8,479.3l2.7-3.4l7.3,0l2.6,3.4l-3.6,0l-0.8-1l-3.7,0l-0.8,1L561.8,479.3z M278.2,382.1
	l-1.5,2.5h-11l-5.3,8.1l5.3,8.1h11l1.5,2.5l0.1,0.2h-14.5l0-0.1l-3.9-6v-9.6l3.9-6l14.5,0L278.2,382.1z M269.1,414.5l-1.8,2.7
	l-3.4-0.1l-0.2,0l3.6-5.4l7.3,0l3.7,5.6l-3.6,5.4l-0.1-0.1l-1.8-2.5l1.8-2.7l-1.8-2.8L269.1,414.5z M264,406.2l14.2,0.1l7.2,10.7
	l0,0.1l-7.2,11l-0.2-0.2l-1.7-2.4l5.5-8.3l-5.4-8.1l-10.7-0.1l-5.5,8.3l-0.3,0v-5L264,406.2L264,406.2z M350.6,479.2l6.3-7.9
	l14.2-0.1l0.1,0l6.3,8l-3.6,0l-4.5-5.7l-10.7,0l-4.5,5.6L350.6,479.2z M357.8,479.2l2.6-3.4l7.3,0l2.6,3.4l-3.7,0l-0.8-1l-3.7,0
	l-0.8,1L357.8,479.2z M510,467.2l-7.2-11l0-0.1l7.2-10.7l14.2-0.1l0.1,0l7.2,11l-0.3,0l-3.2,0.1l-5.5-8.3l-10.7,0.1l-5.4,8.1
	l5.5,8.3l-1.7,2.4L510,467.2z M481.9,479.2l-1.7-2.4l5.5-8.3l-5.4-8.1l-10.7-0.1l-5.5,8.3l-3.2-0.1l-0.3,0l7.2-11l0.1,0l14.2,0.1
	l7.2,10.7l0,0.1l-7.1,10.8L481.9,479.2L481.9,479.2z M589.4,476.7h11l5.3-8.1l-5.3-8.1h-11l-1.5-2.5l-0.1-0.2h14.5l0,0.1l3.9,6v9.6
	l-3.9,5.9l-14.5,0l0.1-0.1L589.4,476.7z M473.1,465.9l-1.8,2.7l-3.4-0.1l-0.2,0l3.6-5.4l7.3,0l3.7,5.6l-3.6,5.4l-0.1-0.1l-1.8-2.5
	l1.8-2.7l-1.8-2.8L473.1,465.9z M409.9,479.2l-4.5-5.7l1.7-2l0.2-0.2l6.2,7.9L409.9,479.2z M426,473l1.6,2.7l0.1,0.1h-7.1l-3.7-5.6
	l3.7-5.6h7.1l-0.1,0.1l-1.6,2.7h-3.6l-1.8,2.8l1.8,2.8H426z M433.7,479.3l-6-9l0-0.1l7.2-11l0.2,0.2l1.7,2.4l-5.5,8.3l5.4,8.1
	l10.7,0.1l5.5-8.3l3.2,0.1l0.3,0l-6.1,9.2L433.7,479.3z M415.6,479.3l-5.9-9.1l7-10.8l0-0.1h14.5l-0.1,0.2l-1.5,2.5h-11l-5.3,8.1
	l5.3,8.1h11l0.6,1L415.6,479.3z M505.8,475.9L505.8,475.9l2.8,3.3l-3.7,0l-1-1.2L505.8,475.9z M575.1,465.9l-1.8,2.7l-3.4-0.1
	l-0.2,0l3.6-5.4l7.3,0l3.7,5.6l-3.6,5.4l-0.1-0.1l-1.8-2.5l1.8-2.7l-1.8-2.8L575.1,465.9z M592.9,465.8l-1.6-2.7l-0.1-0.1h7.1
	l3.7,5.6l-3.7,5.6h-7.1l0.1-0.1l1.6-2.7h3.6l1.8-2.8l-1.8-2.8H592.9z M535.7,479.3l-6-9l0-0.1l7.2-11l0.2,0.2l1.7,2.4l-5.5,8.3
	l5.4,8.1l10.7,0.1l5.5-8.3l3.2,0.1l0.3,0l-6,9.2L535.7,479.3z M584,479.2l-1.7-2.4l5.5-8.3l-5.4-8.1l-10.7-0.1l-5.5,8.3l-3.2-0.1
	l-0.3,0l7.2-11l0.1,0l14.2,0.1l7.2,10.7l0,0.1L584,479.2z M517.6,479.3l-5.9-9.1l7-10.8l0-0.1h14.5l-0.1,0.2l-1.5,2.5h-11l-5.3,8.1
	l5.3,8.1h11l0.6,1L517.6,479.3z M511.9,479.2l-4.5-5.7l1.7-2l0.2-0.2l6.2,7.9L511.9,479.2z M528,473l1.6,2.7l0.1,0.1h-7.1l-3.7-5.6
	l3.7-5.6h7.1l-0.1,0.1l-1.6,2.7h-3.6l-1.8,2.8l1.8,2.8H528z M490.9,465.8l-1.6-2.7l-0.1-0.1h7.1l3.7,5.6l-3.7,5.6h-7.1l0.1-0.1
	l1.6-2.7h3.6l1.8-2.8l-1.8-2.8H490.9z M264.8,479.2l-0.8-1l-3.7,0l-0.4,0.5v-2.9l5.9,0l2.7,3.4L264.8,479.2z M269.2,471.2l6.3,8
	l-3.6,0l-4.5-5.7l-7.5,0v-2.3L269.2,471.2L269.2,471.2z M307.9,479.2l-4.5-5.7l1.7-2l0.2-0.2l6.2,7.9L307.9,479.2z M388.9,465.8
	l-1.6-2.7l-0.1-0.1h7.1l3.7,5.6l-3.7,5.6h-7.1l0.1-0.1l1.6-2.7h3.6l1.8-2.8l-1.8-2.8H388.9z M380,479.2l-1.7-2.4l5.5-8.3l-5.4-8.1
	l-10.7-0.1l-5.5,8.3l-3.2-0.1l-0.3,0l7.2-11l0.1,0l14.2,0.1l7.2,10.7l0,0.1l-7.1,10.8L380,479.2L380,479.2z M385.4,476.7h11l5.3-8.1
	l-5.3-8.1h-11l-1.5-2.5l-0.1-0.2h14.5l0,0.1l7,10.8l-7,10.8l-14.5,0l0.1-0.1L385.4,476.7z M403.8,475.9L403.8,475.9l2.8,3.3l-3.7,0
	l-1-1.2L403.8,475.9z M371.1,465.9l-1.8,2.7l-3.4-0.1l-0.2,0l3.6-5.4l7.3,0l3.7,5.6l-3.6,5.4l-0.1-0.1l-1.8-2.5l1.8-2.7l-1.8-2.8
	L371.1,465.9z M324,473l1.6,2.7l0.1,0.1h-7.1l-3.7-5.6l3.7-5.6h7.1l-0.1,0.1l-1.6,2.7h-3.6l-1.8,2.8l1.8,2.8H324z M313.6,479.3
	l-5.9-9.1l7-10.8l0-0.1h14.5l-0.1,0.2l-1.5,2.5h-11l-5.3,8.1l5.3,8.1h11l0.6,1L313.6,479.3z M331.8,479.3l-6-9l0-0.1l7.2-11l0.2,0.2
	l1.7,2.4l-5.5,8.3l5.4,8.1l10.7,0.1l5.5-8.3l3.2,0.1l0.3,0l-6,9.2L331.8,479.3z M487.4,476.7h11l5.3-8.1l-5.3-8.1h-11l-1.5-2.5
	l-0.1-0.2h14.5l0,0.1l7,10.8l-7,10.8l-14.5,0l0.1-0.1L487.4,476.7z M597,441.5l-7.2-11l0.3,0l3.2-0.1l5.5,8.3l7.3,0v2.7L597,441.5
	L597,441.5z M597,390.1l-6.8-8.2l3.6,0l4.9,6l7.3,0v2.2L597,390.1L597,390.1z M601,381.9l1.2,1.5l3.7,0l0.2-0.2v2.5l-5.7,0l-3.1-3.8
	L601,381.9z M269.2,419.9l7.2,11l-0.3,0l-3.2,0.1l-5.5-8.3l-7.5,0V420L269.2,419.9L269.2,419.9z M353.7,381.9l5,6l-1.7,1.9l-0.2,0.2
	l-6.7-8.1L353.7,381.9z M360.3,385.7L360.3,385.7l-3.2-3.7l3.7,0l1.4,1.7L360.3,385.7z"/>
<g>
	
		<linearGradient id="SVGID_00000043456326299389849180000003542055924853103527_" gradientUnits="userSpaceOnUse" x1="344.0085" y1="214.6673" x2="481.406" y2="214.6673" gradientTransform="matrix(-0.3652 -0.9309 0.9309 -0.3652 368.7179 626.342)">
		<stop  offset="0.2522" style="stop-color:#919191"/>
		<stop  offset="0.2748" style="stop-color:#8A8A8A"/>
		<stop  offset="0.3368" style="stop-color:#7F7F7F"/>
		<stop  offset="0.4238" style="stop-color:#787878"/>
		<stop  offset="0.6659" style="stop-color:#767676"/>
		<stop  offset="0.6993" style="stop-color:#909090"/>
		<stop  offset="0.7428" style="stop-color:#ABABAB"/>
		<stop  offset="0.7902" style="stop-color:#C1C1C1"/>
		<stop  offset="0.8429" style="stop-color:#D0D0D0"/>
		<stop  offset="0.905" style="stop-color:#D8D8D8"/>
		<stop  offset="1" style="stop-color:#DBDBDB"/>
	</linearGradient>
	
		<circle style="fill:none;stroke:url(#SVGID_00000043456326299389849180000003542055924853103527_);stroke-width:12.658;stroke-miterlimit:10;" cx="417.8" cy="163.7" r="62.4"/>
	
		<linearGradient id="SVGID_00000006674532234952345980000004246390318640692131_" gradientUnits="userSpaceOnUse" x1="433.8103" y1="162.1276" x2="518.2027" y2="162.1276" gradientTransform="matrix(-0.1505 -0.9886 0.9886 -0.1505 388.5275 656.1255)">
		<stop  offset="0.2522" style="stop-color:#919191"/>
		<stop  offset="0.2748" style="stop-color:#8A8A8A"/>
		<stop  offset="0.3368" style="stop-color:#7F7F7F"/>
		<stop  offset="0.4238" style="stop-color:#787878"/>
		<stop  offset="0.6659" style="stop-color:#767676"/>
		<stop  offset="0.6993" style="stop-color:#909090"/>
		<stop  offset="0.7428" style="stop-color:#ABABAB"/>
		<stop  offset="0.7902" style="stop-color:#C1C1C1"/>
		<stop  offset="0.8429" style="stop-color:#D0D0D0"/>
		<stop  offset="0.905" style="stop-color:#D8D8D8"/>
		<stop  offset="1" style="stop-color:#DBDBDB"/>
	</linearGradient>
	
		<circle style="fill:none;stroke:url(#SVGID_00000006674532234952345980000004246390318640692131_);stroke-width:11;stroke-miterlimit:10;" cx="477.2" cy="161.1" r="36.7"/>
</g>
</svg>
