<?xml version="1.0" encoding="UTF-8"?>
<svg xmlns="http://www.w3.org/2000/svg" xmlns:xlink="http://www.w3.org/1999/xlink" viewBox="0 0 357.97 552.38">
  <defs>
    <style>
      .cls-1 {
        fill: url(#linear-gradient);
        mix-blend-mode: lighten;
        opacity: .38;
      }

      .cls-2 {
        fill: #010101;
      }

      .cls-3 {
        fill: #fff;
      }

      .cls-4 {
        fill: #231f20;
      }

      .cls-5 {
        fill: url(#Steel);
      }

      .cls-6 {
        stroke: url(#linear-gradient-2);
        stroke-width: 13.7px;
      }

      .cls-6, .cls-7, .cls-8 {
        stroke-miterlimit: 10;
      }

      .cls-6, .cls-8 {
        fill: none;
      }

      .cls-7 {
        fill: #070707;
        stroke: #fff;
        stroke-width: .83px;
      }

      .cls-9 {
        isolation: isolate;
      }

      .cls-8 {
        stroke: url(#linear-gradient-3);
        stroke-width: 11.9px;
      }
    </style>
    <linearGradient id="Steel" x1="0" y1="276.19" x2="357.97" y2="276.19" gradientTransform="translate(.5 -.32) rotate(.1)" gradientUnits="userSpaceOnUse">
      <stop offset="0" stop-color="#e5e2df"/>
      <stop offset="0" stop-color="#dedad6"/>
      <stop offset=".04" stop-color="#cfccc9"/>
      <stop offset=".11" stop-color="#a8a9a7"/>
      <stop offset=".21" stop-color="#697071"/>
      <stop offset=".26" stop-color="#475154"/>
      <stop offset=".37" stop-color="#878d8e"/>
      <stop offset=".46" stop-color="#b7baba"/>
      <stop offset=".53" stop-color="#d4d6d5"/>
      <stop offset=".57" stop-color="#e0e1e0"/>
      <stop offset=".63" stop-color="#d6d7d7"/>
      <stop offset=".73" stop-color="#bcbfc1"/>
      <stop offset=".86" stop-color="#91989e"/>
      <stop offset=".88" stop-color="#8b9299"/>
      <stop offset="1" stop-color="#d2d3d4"/>
      <stop offset="1" stop-color="#a8aaad"/>
    </linearGradient>
    <linearGradient id="linear-gradient" x1="375.07" y1="371.88" x2="-16.09" y2="-19.29" gradientTransform="translate(126.07 -122.27) rotate(.12) scale(.64 1.89)" gradientUnits="userSpaceOnUse">
      <stop offset="0" stop-color="#231f20"/>
      <stop offset=".5" stop-color="#fff"/>
      <stop offset="1" stop-color="#231f20"/>
    </linearGradient>
    <linearGradient id="linear-gradient-2" x1="90.93" y1="192.77" x2="239.62" y2="192.77" gradientTransform="translate(49.16 349.95) rotate(-111.42)" gradientUnits="userSpaceOnUse">
      <stop offset=".25" stop-color="#919191"/>
      <stop offset=".27" stop-color="#8a8a8a"/>
      <stop offset=".34" stop-color="#7e7e7e"/>
      <stop offset=".42" stop-color="#777"/>
      <stop offset=".67" stop-color="#767676"/>
      <stop offset=".7" stop-color="#909090"/>
      <stop offset=".74" stop-color="#ababab"/>
      <stop offset=".79" stop-color="silver"/>
      <stop offset=".84" stop-color="#cfcfcf"/>
      <stop offset=".91" stop-color="#d8d8d8"/>
      <stop offset="1" stop-color="#dbdbdb"/>
    </linearGradient>
    <linearGradient id="linear-gradient-3" x1="183.84" y1="143.45" x2="275.17" y2="143.45" gradientTransform="translate(125.18 371.36) rotate(-98.66)" xlink:href="#linear-gradient-2"/>
  </defs>
  <g class="cls-9">
    <g id="Layer_1" data-name="Layer 1">
      <g id="STILL_CARD" data-name="STILL CARD">
        <path class="cls-5" d="M19.94,.29H338.04c10.75,0,19.47,8.73,19.47,19.47V532.61c0,10.75-8.73,19.47-19.47,19.47H19.94c-10.75,0-19.48-8.73-19.48-19.48V19.76C.46,9.01,9.19,.29,19.94,.29Z" transform="translate(-.5 .32) rotate(-.1)"/>
        <path class="cls-1" d="M6.65,27.07c175.48,.37,320.74,219.09,348.68,506.06l1.03-493.66c.04-20.19-5.56-36.56-12.51-36.58L12.35,2.2c-5.56-.01-10.3,10.45-11.99,24.96,2.09-.06,4.19-.1,6.29-.09Z"/>
      </g>
      <g>
        <path class="cls-2" d="M23.68,493.36c.78-.13,1.8-.24,3.1-.24,1.59,0,2.76,.37,3.5,1.04,.69,.59,1.09,1.5,1.09,2.61s-.33,2.02-.96,2.67c-.85,.91-2.24,1.37-3.82,1.37-.48,0-.93-.02-1.3-.11v5.01h-1.61v-12.35Zm1.61,6.03c.35,.09,.8,.13,1.33,.13,1.95,0,3.13-.95,3.13-2.67s-1.17-2.45-2.95-2.45c-.71,0-1.24,.06-1.52,.13v4.86Z"/>
        <path class="cls-2" d="M33.55,493.38c.82-.17,1.98-.26,3.1-.26,1.72,0,2.84,.32,3.62,1.02,.63,.56,.98,1.41,.98,2.37,0,1.65-1.04,2.74-2.35,3.19v.06c.96,.33,1.54,1.22,1.84,2.52,.41,1.74,.71,2.95,.96,3.43h-1.67c-.2-.35-.48-1.43-.83-2.99-.37-1.72-1.04-2.37-2.5-2.43h-1.52v5.41h-1.61v-12.33Zm1.61,5.69h1.65c1.72,0,2.82-.95,2.82-2.37,0-1.61-1.17-2.32-2.87-2.34-.78,0-1.33,.07-1.59,.15v4.56Z"/>
        <path class="cls-2" d="M45.14,493.21v12.5h-1.61v-12.5h1.61Z"/>
        <path class="cls-2" d="M50.71,505.71l-4.08-12.5h1.74l1.95,6.16c.54,1.69,1,3.21,1.34,4.67h.04c.35-1.45,.87-3.02,1.43-4.65l2.11-6.17h1.72l-4.47,12.5h-1.78Z"/>
        <path class="cls-2" d="M59.93,493.21v12.5h-1.61v-12.5h1.61Z"/>
        <path class="cls-2" d="M62.75,493.21h1.61v11.14h5.34v1.35h-6.95v-12.5Z"/>
        <path class="cls-2" d="M77.98,499.85h-4.86v4.51h5.41v1.35h-7.03v-12.5h6.75v1.35h-5.14v3.95h4.86v1.33Z"/>
        <path class="cls-2" d="M90.15,505.15c-.72,.26-2.15,.69-3.84,.69-1.89,0-3.45-.48-4.67-1.65-1.07-1.04-1.74-2.71-1.74-4.65,.02-3.73,2.58-6.45,6.77-6.45,1.45,0,2.58,.32,3.11,.57l-.39,1.32c-.67-.3-1.5-.54-2.76-.54-3.04,0-5.02,1.89-5.02,5.02s1.91,5.04,4.82,5.04c1.06,0,1.78-.15,2.15-.33v-3.73h-2.54v-1.3h4.12v6.01Z"/>
        <path class="cls-2" d="M99.09,499.85h-4.86v4.51h5.41v1.35h-7.03v-12.5h6.75v1.35h-5.14v3.95h4.86v1.33Z"/>
        <path class="cls-2" d="M116.21,500.22c-.09-1.74-.2-3.84-.18-5.4h-.06c-.43,1.46-.95,3.02-1.58,4.75l-2.21,6.06h-1.22l-2.02-5.95c-.59-1.76-1.09-3.37-1.45-4.86h-.04c-.04,1.56-.13,3.65-.24,5.53l-.33,5.36h-1.54l.87-12.5h2.06l2.13,6.04c.52,1.54,.95,2.91,1.26,4.21h.06c.32-1.26,.76-2.63,1.32-4.21l2.23-6.04h2.06l.78,12.5h-1.58l-.32-5.49Z"/>
        <path class="cls-2" d="M127.07,499.85h-4.86v4.51h5.41v1.35h-7.03v-12.5h6.75v1.35h-5.14v3.95h4.86v1.33Z"/>
        <path class="cls-2" d="M140.26,500.22c-.09-1.74-.2-3.84-.18-5.4h-.06c-.43,1.46-.95,3.02-1.58,4.75l-2.21,6.06h-1.22l-2.02-5.95c-.59-1.76-1.09-3.37-1.45-4.86h-.04c-.04,1.56-.13,3.65-.24,5.53l-.33,5.36h-1.54l.87-12.5h2.06l2.13,6.04c.52,1.54,.95,2.91,1.26,4.21h.06c.32-1.26,.76-2.63,1.32-4.21l2.23-6.04h2.06l.78,12.5h-1.58l-.32-5.49Z"/>
        <path class="cls-2" d="M144.64,493.38c.7-.15,1.82-.26,2.95-.26,1.61,0,2.65,.28,3.43,.91,.65,.48,1.04,1.22,1.04,2.21,0,1.2-.8,2.26-2.11,2.74v.04c1.19,.3,2.58,1.28,2.58,3.13,0,1.08-.43,1.89-1.06,2.5-.87,.8-2.28,1.17-4.32,1.17-1.11,0-1.97-.07-2.5-.15v-12.29Zm1.61,5.12h1.46c1.71,0,2.71-.89,2.71-2.09,0-1.47-1.11-2.04-2.74-2.04-.74,0-1.17,.06-1.43,.11v4.02Zm0,5.99c.31,.06,.78,.07,1.35,.07,1.67,0,3.21-.61,3.21-2.43,0-1.71-1.46-2.41-3.23-2.41h-1.33v4.77Z"/>
        <path class="cls-2" d="M161.17,499.85h-4.86v4.51h5.41v1.35h-7.03v-12.5h6.75v1.35h-5.14v3.95h4.86v1.33Z"/>
        <path class="cls-2" d="M163.82,493.38c.82-.17,1.98-.26,3.1-.26,1.72,0,2.84,.32,3.62,1.02,.63,.56,.98,1.41,.98,2.37,0,1.65-1.04,2.74-2.35,3.19v.06c.96,.33,1.54,1.22,1.84,2.52,.41,1.74,.71,2.95,.96,3.43h-1.67c-.2-.35-.48-1.43-.83-2.99-.37-1.72-1.04-2.37-2.5-2.43h-1.52v5.41h-1.61v-12.33Zm1.61,5.69h1.65c1.72,0,2.82-.95,2.82-2.37,0-1.61-1.17-2.32-2.87-2.34-.78,0-1.33,.07-1.59,.15v4.56Z"/>
      </g>
      <g>
        <path class="cls-2" d="M33.23,521.99c0,4.79-1.78,7.43-4.89,7.43-2.75,0-4.61-2.58-4.66-7.23,0-4.72,2.04-7.32,4.89-7.32s4.66,2.64,4.66,7.12Zm-7.65,.22c0,3.66,1.13,5.74,2.86,5.74,1.95,0,2.88-2.27,2.88-5.87s-.89-5.74-2.86-5.74c-1.67,0-2.88,2.04-2.88,5.87Z"/>
        <path class="cls-2" d="M44.33,521.99c0,4.79-1.78,7.43-4.89,7.43-2.75,0-4.61-2.58-4.66-7.23,0-4.72,2.04-7.32,4.89-7.32s4.66,2.64,4.66,7.12Zm-7.65,.22c0,3.66,1.13,5.74,2.86,5.74,1.95,0,2.88-2.27,2.88-5.87s-.89-5.74-2.86-5.74c-1.67,0-2.88,2.04-2.88,5.87Z"/>
        <path class="cls-2" d="M50.22,516.88h-.04l-2.45,1.32-.37-1.45,3.07-1.65h1.62v14.08h-1.84v-12.3Z"/>
        <path class="cls-2" d="M57.18,529.18v-1.17l1.49-1.45c3.59-3.42,5.22-5.24,5.24-7.36,0-1.43-.69-2.75-2.79-2.75-1.28,0-2.34,.65-2.99,1.19l-.61-1.34c.97-.82,2.36-1.43,3.98-1.43,3.03,0,4.31,2.08,4.31,4.09,0,2.6-1.88,4.7-4.85,7.56l-1.13,1.04v.04h6.32v1.58h-8.99Z"/>
        <path class="cls-2" d="M82.23,521.99c0,4.79-1.78,7.43-4.89,7.43-2.75,0-4.61-2.58-4.66-7.23,0-4.72,2.04-7.32,4.89-7.32s4.66,2.64,4.66,7.12Zm-7.65,.22c0,3.66,1.13,5.74,2.86,5.74,1.95,0,2.88-2.27,2.88-5.87s-.89-5.74-2.86-5.74c-1.67,0-2.88,2.04-2.88,5.87Z"/>
        <path class="cls-2" d="M93.33,521.99c0,4.79-1.78,7.43-4.89,7.43-2.75,0-4.61-2.58-4.66-7.23,0-4.72,2.04-7.32,4.89-7.32s4.66,2.64,4.66,7.12Zm-7.65,.22c0,3.66,1.13,5.74,2.86,5.74,1.95,0,2.88-2.27,2.88-5.87s-.89-5.74-2.86-5.74c-1.67,0-2.88,2.04-2.88,5.87Z"/>
        <path class="cls-2" d="M95.54,526.99c.54,.35,1.8,.89,3.12,.89,2.45,0,3.21-1.56,3.18-2.73-.02-1.97-1.8-2.82-3.64-2.82h-1.06v-1.43h1.06c1.39,0,3.14-.71,3.14-2.38,0-1.13-.71-2.12-2.47-2.12-1.13,0-2.21,.5-2.82,.93l-.5-1.39c.74-.54,2.17-1.08,3.68-1.08,2.77,0,4.03,1.65,4.03,3.36,0,1.45-.87,2.69-2.6,3.31v.04c1.73,.35,3.14,1.65,3.14,3.62,0,2.25-1.75,4.22-5.13,4.22-1.58,0-2.97-.5-3.66-.95l.52-1.47Z"/>
        <path class="cls-2" d="M114.59,516.71h-5.37l-.54,3.62c.32-.04,.63-.09,1.15-.09,1.08,0,2.17,.24,3.03,.76,1.1,.63,2.01,1.84,2.01,3.62,0,2.75-2.19,4.81-5.24,4.81-1.54,0-2.84-.43-3.51-.87l.48-1.45c.59,.35,1.73,.78,3.01,.78,1.8,0,3.33-1.17,3.33-3.05-.02-1.82-1.23-3.12-4.05-3.12-.8,0-1.43,.09-1.95,.15l.91-6.76h6.74v1.6Z"/>
        <path class="cls-2" d="M131.23,521.99c0,4.79-1.78,7.43-4.89,7.43-2.75,0-4.61-2.58-4.66-7.23,0-4.72,2.04-7.32,4.89-7.32s4.66,2.64,4.66,7.12Zm-7.65,.22c0,3.66,1.13,5.74,2.86,5.74,1.95,0,2.88-2.27,2.88-5.87s-.89-5.74-2.86-5.74c-1.67,0-2.88,2.04-2.88,5.87Z"/>
        <path class="cls-2" d="M142.33,521.99c0,4.79-1.78,7.43-4.89,7.43-2.75,0-4.61-2.58-4.66-7.23,0-4.72,2.04-7.32,4.89-7.32s4.66,2.64,4.66,7.12Zm-7.65,.22c0,3.66,1.13,5.74,2.86,5.74,1.95,0,2.88-2.27,2.88-5.87s-.89-5.74-2.86-5.74c-1.67,0-2.88,2.04-2.88,5.87Z"/>
        <path class="cls-2" d="M152.48,516.71h-5.37l-.54,3.62c.32-.04,.63-.09,1.15-.09,1.08,0,2.17,.24,3.03,.76,1.1,.63,2.01,1.84,2.01,3.62,0,2.75-2.19,4.81-5.24,4.81-1.54,0-2.84-.43-3.51-.87l.48-1.45c.59,.35,1.73,.78,3.01,.78,1.8,0,3.33-1.17,3.33-3.05-.02-1.82-1.23-3.12-4.05-3.12-.8,0-1.43,.09-1.95,.15l.91-6.76h6.74v1.6Z"/>
        <path class="cls-2" d="M163.22,516.45c-.39-.02-.89,0-1.43,.09-2.99,.5-4.57,2.69-4.89,5h.06c.67-.89,1.84-1.62,3.4-1.62,2.49,0,4.24,1.8,4.24,4.55,0,2.58-1.75,4.96-4.68,4.96s-4.98-2.34-4.98-6c0-2.77,1-4.96,2.38-6.35,1.17-1.15,2.73-1.86,4.5-2.08,.56-.09,1.04-.11,1.39-.11v1.56Zm-.54,8.12c0-2.01-1.15-3.23-2.9-3.23-1.15,0-2.21,.71-2.73,1.73-.13,.22-.22,.5-.22,.84,.04,2.32,1.1,4.03,3.1,4.03,1.65,0,2.75-1.36,2.75-3.38Z"/>
      </g>
      <g id="LATAM_2" data-name="LATAM 2">
        <g>
          <path d="M270.06,471.15h1.92l-1.92,1.94v-1.94Zm0,0"/>
          <path d="M273.9,471.15h1.92l-5.76,5.83v-1.94l3.84-3.89Zm0,0"/>
          <path d="M277.74,471.15h1.92l-9.6,9.73v-1.95l7.68-7.78Zm0,0"/>
          <path d="M281.57,471.15h1.92l-13.43,13.62v-1.95l11.51-11.67Zm0,0"/>
          <path d="M285.41,471.15h1.92l-17.27,17.51v-1.95l15.35-15.56Zm0,0"/>
          <path d="M289.25,471.15h1.92l-21.11,21.4v-1.95l19.19-19.45Zm0,0"/>
          <path d="M293.09,471.15h1.92l-24.95,25.29v-1.95l23.03-23.34Zm0,0"/>
          <path d="M296.93,471.15h1.92l-28.79,29.18v-1.94l26.87-27.23Zm0,0"/>
          <path d="M300.77,471.15h1.92l-32.63,33.07v-1.94l30.71-31.13Zm0,0"/>
          <path d="M304.6,471.15h1.92l-36.47,36.96v-1.94l34.55-35.02Zm0,0"/>
          <path d="M308.44,471.15h1.92l-40.3,40.85v-1.94l38.39-38.91Zm0,0"/>
          <path d="M312.28,471.15h1.92l-44.14,44.74v-1.94l42.22-42.8Zm0,0"/>
          <path d="M316.12,471.15h1.92l-47.98,48.63v-1.94l46.06-46.69Zm0,0"/>
          <path d="M319.96,471.15h1.92l-51.82,52.53v-1.95l49.9-50.58Zm0,0"/>
          <path d="M323.8,471.15h1.92l-55.66,56.42v-1.95l53.74-54.47Zm0,0"/>
          <path d="M327.64,471.15h1.92l-59.5,60.31v-1.95l57.58-58.36Zm0,0"/>
          <path d="M331.03,531.91h-1.92l1.92-1.94v1.94Zm0,0"/>
          <path d="M327.19,531.91h-1.92l5.76-5.83v1.94l-3.84,3.89Zm0,0"/>
          <path d="M323.35,531.91h-1.92l9.6-9.73v1.94l-7.68,7.78Zm0,0"/>
          <path d="M319.51,531.91h-1.92l13.44-13.62v1.95l-11.52,11.67Zm0,0"/>
          <path d="M315.67,531.91h-1.92l17.27-17.51v1.95l-15.36,15.56Zm0,0"/>
          <path d="M311.83,531.91h-1.92l21.11-21.4v1.95l-19.19,19.45Zm0,0"/>
          <path d="M308,531.91h-1.92l24.95-25.29v1.95l-23.03,23.34Zm0,0"/>
          <path d="M304.16,531.91h-1.92l28.79-29.18v1.95l-26.87,27.23Zm0,0"/>
          <path d="M300.32,531.91h-1.92l32.63-33.07v1.94l-30.71,31.13Zm0,0"/>
          <path d="M296.48,531.91h-1.92l36.47-36.96v1.94l-34.55,35.02Zm0,0"/>
          <path d="M292.64,531.91h-1.92l40.3-40.85v1.94l-38.38,38.91Zm0,0"/>
          <path d="M288.8,531.91h-1.92l44.14-44.74v1.94l-42.23,42.8Zm0,0"/>
          <path d="M284.96,531.91h-1.92l47.98-48.63v1.94l-46.06,46.69Zm0,0"/>
          <path d="M281.12,531.91h-1.92l51.82-52.53v1.94l-49.9,50.58Zm0,0"/>
          <path d="M277.29,531.91h-1.92l55.66-56.42v1.95l-53.74,54.47Zm0,0"/>
          <path d="M273.45,531.91h-1.92l59.5-60.31v1.95l-57.58,58.36Zm0,0"/>
        </g>
        <g>
          <path class="cls-7" d="M292.82,498.99h-10.95v-18.97h5v14.62h5.95v4.36Z"/>
          <path class="cls-7" d="M310.66,498.99h-5.4l-1.49-3.72h-6.14l-1.47,3.72h-5.25l7.88-18.97h4.11l7.76,18.97Z"/>
          <path class="cls-7" d="M320.34,484.35h-3.59v14.64h-5v-14.64h-3.59v-4.33h12.17v4.33Z"/>
          <path class="cls-7" d="M300.34,524.29h-5.4l-1.49-3.72h-6.14l-1.47,3.72h-5.25l7.88-18.97h4.11l7.76,18.97Z"/>
          <path class="cls-7" d="M319.27,524.29h-4.97l.09-9.79-3.65,9.79h-3.72l-3.65-9.78,.12,9.78h-5v-18.97h6.03l4.37,11.67,4.35-11.67h6.03v18.97Z"/>
        </g>
      </g>
      <path class="cls-4" d="M234.09,401.31h-.31s7.24,10.99,7.24,10.99h.08s14.19-.07,14.19-.07l7.17-10.73,.04-.06-7.24-10.98-.16,.23-1.68,2.4,5.49,8.33-5.4,8.09-10.7,.05-5.49-8.33-3.22,.08Zm6.83,16.32l1.8-2.73,3.4,.14h.16s-3.55,5.4-3.55,5.4h-7.33s-3.67-5.56-3.67-5.56l3.55-5.39,.08,.11,1.85,2.51-1.8,2.73,1.83,2.79h3.67Zm-32.51-10.58l-.08,.11-3.55-5.39,3.67-5.57h7.33s3.55,5.4,3.55,5.4h-.16s-3.4,.15-3.4,.15l-1.8-2.73h-3.67s-1.83,2.79-1.83,2.79l1.8,2.73-1.85,2.51Zm-3.47,5.47l-7.24-10.98,.04-.06,7.17-10.73,14.19-.07h.08s7.24,10.98,7.24,10.98h-.31s-3.22,.09-3.22,.09l-5.49-8.33-10.7,.05-5.4,8.09,5.49,8.33-1.68,2.4-.16,.23Zm133.98-27.56l-1.56-2.66-.07-.12h7.11l3.67,5.56-3.67,5.57h-7.11l.07-.12,1.56-2.66h3.6l1.84-2.79-1.84-2.79h-3.6Zm-8.97,13.55l-1.68-2.4,5.49-8.33-5.4-8.09-10.7-.05-5.49,8.33-3.22-.08h-.31s7.24-10.99,7.24-10.99h.08s14.19,.07,14.19,.07l7.17,10.73,.04,.06-7.24,10.98-.16-.23Zm-19.53,8.53l-.08,.11-3.55-5.39,3.67-5.57h7.33s3.55,5.4,3.55,5.4h-.16s-3.4,.15-3.4,.15l-1.8-2.73h-3.67s-1.83,2.79-1.83,2.79l1.8,2.73-1.85,2.51Zm-3.47,5.47l-7.24-10.98,.04-.06,7.17-10.73,14.19-.07h.08s7.24,10.98,7.24,10.98h-.31s-3.22,.09-3.22,.09l-5.49-8.33-10.7,.05-5.4,8.09,5.49,8.33-1.68,2.4-.16,.23Zm-174.86-11.22l3.22-.08,5.49,8.33,10.7-.05,5.4-8.09-5.49-8.33,1.68-2.4,.16-.23,7.24,10.98-.04,.06-7.17,10.73-14.19,.07h-.08s-7.24-10.98-7.24-10.98h.31Zm-104.26-24.23l-.15-.24h14.47l.04,.06,7.03,10.8-7.03,10.8-.04,.06h-14.47l.15-.24,1.53-2.48h10.98l5.3-8.14-5.3-8.14h-10.98l-1.53-2.48Zm5.09,7.89l-1.56-2.66-.07-.12h7.11l3.67,5.56-3.67,5.57h-7.11l.07-.12,1.56-2.66h3.6l1.84-2.79-1.84-2.79h-3.6Zm-13.86,32.84l1.56,2.66,.07,.12h-7.11l-3.67-5.57,3.67-5.56h7.11l-.07,.12-1.56,2.66h-3.6l-1.84,2.79,1.84,2.79h3.6Zm9.03-65.02l1.68,2.4-5.49,8.33,5.4,8.09,10.7,.05,5.49-8.33,3.22,.08h.31s-7.24,10.99-7.24,10.99h-.08s-14.19-.07-14.19-.07l-7.17-10.73-.04-.06,7.17-10.88,.15,.02,.08,.12Zm110.89,64.84l1.8-2.73,3.4,.14h.16s-3.55,5.4-3.55,5.4h-7.33s-3.67-5.56-3.67-5.56l3.55-5.39,.08,.11,1.85,2.51-1.8,2.73,1.83,2.79h3.67Zm-110.89-13.27l1.68,2.4-5.49,8.33,5.4,8.09,10.7,.05,5.49-8.33,3.22,.08h.31s-7.24,10.99-7.24,10.99h-.08s-14.19-.07-14.19-.07l-7.17-10.73-.04-.06,7.24-10.98,.16,.23Zm74.87,8.17l-7.24-10.98,.04-.06,7.17-10.73,14.19-.07h.08s7.24,10.98,7.24,10.98h-.31s-3.22,.09-3.22,.09l-5.49-8.33-10.7,.05-5.4,8.09,5.49,8.33-1.68,2.4-.16,.23Zm-87.63-10.92h-.16s-3.4,.15-3.4,.15l-1.8-2.73h-3.67s-.42,.63-.42,.63v-3.45h5.9s3.55,5.4,3.55,5.4Zm216.5-3.28l1.53-2.48h10.98l5.3-8.14-5.3-8.14h-10.98l-1.53-2.48-.15-.24h14.47l.04,.06,7.03,10.8-7.03,10.8-.04,.06h-14.47l.15-.24ZM19.05,366.33l1.56,2.66,.07,.12h-7.11l-3.67-5.57,3.67-5.56h7.11l-.07,.12-1.56,2.66h-3.6l-1.84,2.79,1.84,2.79h3.6Zm217.87,18.65l-1.56-2.66-.07-.12h7.11l3.67,5.56-3.67,5.57h-7.11l.07-.12,1.56-2.66h3.6l1.84-2.79-1.84-2.79h-3.6Zm-8.99,13.55l-1.68-2.4,5.49-8.33-5.4-8.09-10.7-.05-5.49,8.33-3.22-.08h-.31s7.24-10.99,7.24-10.99h.08s14.19,.07,14.19,.07l7.17,10.73,.04,.06-7.24,10.98-.16-.23Zm23.86-2.6l.08-.11,3.55,5.39-3.67,5.57h-7.33s-3.55-5.4-3.55-5.4h.16s3.4-.15,3.4-.15l1.8,2.73h3.67s1.83-2.79,1.83-2.79l-1.8-2.73,1.85-2.51Zm-47.8-30.93l7.24,10.98-.04,.06-7.17,10.73-14.19,.07h-.08s-7.24-10.98-7.24-10.98h.31s3.22-.09,3.22-.09l5.49,8.33,10.7-.05,5.4-8.09-5.49-8.33,1.68-2.4,.16-.23Zm-14.06,26.98l1.8-2.73,3.4,.14h.16s-3.55,5.4-3.55,5.4h-7.33s-3.67-5.56-3.67-5.56l3.55-5.39,.08,.11,1.85,2.51-1.8,2.73,1.83,2.79h3.67Zm10.6-21.51l.08-.11,3.55,5.39-3.67,5.57h-7.33s-3.55-5.4-3.55-5.4h.16s3.4-.15,3.4-.15l1.8,2.73h3.67s1.83-2.79,1.83-2.79l-1.8-2.73,1.85-2.51Zm58.95,10.68l-.08,.11-3.55-5.39,3.67-5.57h7.33s3.55,5.4,3.55,5.4h-.16s-3.4,.15-3.4,.15l-1.8-2.73h-3.67s-1.83,2.79-1.83,2.79l1.8,2.73-1.85,2.51Zm14.51,11.01l1.56,2.66,.07,.12h-7.11l-3.67-5.57,3.67-5.56h7.11l-.07,.12-1.56,2.66h-3.6l-1.84,2.79,1.84,2.79h3.6Zm17.96-.18l1.8-2.73,3.4,.14h.16s-3.55,5.4-3.55,5.4h-7.33s-3.67-5.56-3.67-5.56l3.55-5.39,.08,.11,1.85,2.51-1.8,2.73,1.83,2.79h3.67Zm29.15-6.72l-1.8,2.73-3.4-.14h-.16s3.55-5.4,3.55-5.4h7.33s3.67,5.56,3.67,5.56l-3.55,5.39-.08-.11-1.85-2.51,1.8-2.73-1.83-2.79h-3.67Zm-15.07-20.26l7.24,10.98-.04,.06-7.17,10.73-14.19,.07h-.08s-7.24-10.98-7.24-10.98h.31s3.22-.09,3.22-.09l5.49,8.33,10.7-.05,5.4-8.09-5.49-8.33,1.68-2.4,.16-.23Zm-8.94,35.33l-14.19-.07-7.17-10.73-.04-.06,7.24-10.98,.16,.23,1.68,2.4-5.49,8.33,5.4,8.09,10.7,.05,5.49-8.33,3.22,.08h.31s-7.24,10.99-7.24,10.99h-.08Zm-19.91-24.56l-3.22,.08-5.49-8.33-10.7,.05-5.4,8.09,5.49,8.33-1.68,2.4-.16,.23-7.24-10.98,.04-.06,7.17-10.73,14.19-.07h.08s7.24,10.98,7.24,10.98h-.31Zm-7.03-15.97l-1.8,2.73-3.4-.14h-.16s3.55-5.4,3.55-5.4h7.33s3.67,5.56,3.67,5.56l-3.55,5.39-.08-.11-1.85-2.51,1.8-2.73-1.83-2.79h-3.67Zm32.41,10.68l.08-.11,3.55,5.39-3.67,5.57h-7.33s-3.55-5.4-3.55-5.4h.16s3.4-.15,3.4-.15l1.8,2.73h3.67s1.83-2.79,1.83-2.79l-1.8-2.73,1.85-2.51Zm-37.85,29.66l-7.03-10.8,7.03-10.8,.04-.06h14.47l-.15,.24-1.53,2.48h-10.98l-5.3,8.14,5.3,8.14h10.98l1.53,2.48,.15,.24h-14.47l-.04-.06Zm78.25,17.51l1.8-2.73,3.4,.14h.16s-3.55,5.4-3.55,5.4h-7.33s-3.67-5.56-3.67-5.56l3.55-5.39,.08,.11,1.85,2.51-1.8,2.73,1.83,2.79h3.67Zm-188.96,20.28l-7.24-10.98,.04-.06,7.17-10.73,14.19-.07h.08s7.24,10.98,7.24,10.98h-.31s-3.22,.09-3.22,.09l-5.49-8.33-10.7,.05-5.4,8.09,5.49,8.33-1.68,2.4-.16,.23Zm35.93,5.55l1.8-2.73,3.4,.14h.16s-3.55,5.4-3.55,5.4h-7.33s-3.67-5.56-3.67-5.56l3.55-5.39,.08,.11,1.85,2.51-1.8,2.73,1.83,2.79h3.67Zm-32.46-11.02l-.08,.11-3.55-5.39,3.67-5.57h7.33s3.55,5.4,3.55,5.4h-.16s-3.4,.15-3.4,.15l-1.8-2.73h-3.67s-1.83,2.79-1.83,2.79l1.8,2.73-1.85,2.51Zm-76.45-5.43l3.22-.08,5.49,8.33,10.7-.05,5.4-8.09-5.49-8.33,1.68-2.4,.16-.23,7.24,10.98-.04,.06-7.17,10.73-14.19,.07h-.08s-7.24-10.98-7.24-10.98h.31Zm101.95,0l3.22-.08,5.49,8.33,10.7-.05,5.4-8.09-5.49-8.33,1.68-2.4,.16-.23,7.24,10.98-.04,.06-7.17,10.73-14.19,.07h-.08s-7.24-10.98-7.24-10.98h.31Zm102.03,0l3.22-.08,5.49,8.33,10.7-.05,5.4-8.09-5.49-8.33,1.68-2.4,.16-.23,7.24,10.98-.04,.06-7.17,10.73-14.19,.07h-.08s-7.24-10.98-7.24-10.98h.31Zm6.95,16.44l1.8-2.73,3.4,.14h.16s-3.55,5.4-3.55,5.4h-7.33s-3.67-5.56-3.67-5.56l3.55-5.39,.08,.11,1.85,2.51-1.8,2.73,1.83,2.79h3.67Zm-32.47-11.02l-.08,.11-3.55-5.39,3.67-5.57h7.33s3.55,5.4,3.55,5.4h-.16s-3.4,.15-3.4,.15l-1.8-2.73h-3.67s-1.83,2.79-1.83,2.79l1.8,2.73-1.85,2.51Zm-207.47,5.47l-7.24-10.98,.04-.06,7.17-10.73,14.19-.07h.08s7.24,10.98,7.24,10.98h-.31s-3.22,.09-3.22,.09l-5.49-8.33-10.7,.05-5.4,8.09,5.49,8.33-1.68,2.4-.16,.23Zm-42.04-9.6l14.19,.07,7.17,10.73,.04,.06-7.13,10.83h-.22s-.05-.08-.05-.08l-1.68-2.4,5.49-8.33-5.4-8.09-10.7-.05-5.49,8.33h-.28v-5.02l3.99-6.05h.08Zm5.13,8.35l-1.8,2.73-3.4-.14h-.16s3.55-5.4,3.55-5.4h7.33s3.67,5.56,3.67,5.56l-3.55,5.39-.08-.11-1.85-2.51,1.8-2.73-1.83-2.79h-3.67Zm32.7,10.02l.08-.1,2.68,3.42h-3.68s-.94-1.21-.94-1.21l1.85-2.11Zm-23.64-42.33l-1.53,2.48H11.63l-5.3,8.14,5.3,8.14h10.98l1.53,2.48,.15,.24H9.81l-.04-.06-3.89-5.99v-9.63l3.89-5.99,.04-.06h14.47l-.15,.24Zm63.82,39.11l1.8-2.73,3.4,.14h.16s-3.55,5.4-3.55,5.4h-7.33s-3.67-5.56-3.67-5.56l3.55-5.39,.08,.11,1.85,2.51-1.8,2.73,1.83,2.79h3.67Zm-29.88-90.8l-6.79,8.16-14.19,.06h-.08s-6.75-8.21-6.75-8.21l3.58-.02,4.95,6.03,10.7-.04,4.98-5.98h3.61Zm290.01,73.31l-14.19-.07-7.17-10.73-.04-.06,7.24-10.98,.16,.23,1.68,2.4-5.49,8.33,5.4,8.09,10.7,.05,5.49-8.33h.23v5.1l-3.93,5.97h-.08Zm-292.62,6.47l-.08,.11-3.55-5.39,3.67-5.57h7.33s3.55,5.4,3.55,5.4h-.16s-3.4,.15-3.4,.15l-1.8-2.73h-3.67s-1.83,2.79-1.83,2.79l1.8,2.73-1.85,2.51Zm-27.63,17.44l1.53-2.48h10.98l5.3-8.14-5.3-8.14h-10.98l-1.53-2.48-.15-.24h14.47l.04,.06,7.03,10.8-6.97,10.72h-14.49s.07-.1,.07-.1Zm132.27-97.2l-6.78,8.15-14.19,.06h-.08s-6.75-8.22-6.75-8.22h3.59s4.94,6.02,4.94,6.02l10.7-.04,4.97-5.98h3.6Zm101.96,0l-6.79,8.16-14.19,.06h-.08s-6.75-8.22-6.75-8.22h3.59s4.94,6.02,4.94,6.02l10.7-.04,4.98-5.99h3.6Zm-109.17,.02l-3.1,3.78h-7.33s-3.1-3.78-3.1-3.78h3.65s1.26,1.52,1.26,1.52h3.67s1.25-1.52,1.25-1.52h3.7Zm48.96-.01l4.95,6.03-1.68,1.93-.16,.19-6.68-8.14h3.58Zm-150.98,0l-3.1,3.78h-7.33s-3.1-3.78-3.1-3.78h3.66s1.25,1.52,1.25,1.52h3.67s1.25-1.53,1.25-1.53h3.7Zm252.99,0l4.95,6.03-1.68,1.93-.16,.19-6.68-8.14h3.58Zm29.99,45.67l1.53-2.48h10.98l5.3-8.14-5.3-8.14h-10.98l-1.53-2.48-.15-.24h14.47l.04,.06,3.9,6v9.61l-3.9,6-.04,.06h-14.47l.15-.24Zm9.04,3.04h.16s3.4-.15,3.4-.15l1.8,2.73h3.67s.2-.29,.2-.29v3.11h-5.67s-3.55-5.4-3.55-5.4Zm5.21-26.97l-14.19-.07-7.17-10.73-.04-.06,7.17-10.88h.14s.09,.13,.09,.13l1.68,2.4-5.49,8.33,5.4,8.09,10.7,.05,5.49-8.33h.23v5.1l-3.93,5.97h-.08Zm-93.25-21.74l-3.11,3.78h-7.33s-3.1-3.77-3.1-3.77h3.65s1.25,1.51,1.25,1.51h3.67s1.25-1.53,1.25-1.53h3.71Zm-35.77,32.59l-1.8,2.73-3.4-.14h-.16s3.55-5.4,3.55-5.4h7.33s3.67,5.56,3.67,5.56l-3.55,5.39-.08-.11-1.85-2.51,1.8-2.73-1.83-2.79h-3.67Zm123.88-19.19l1.8-2.73,3.4,.14h.16s-3.55,5.4-3.55,5.4h-7.33s-3.67-5.56-3.67-5.56l3.55-5.39,.08,.11,1.85,2.51-1.8,2.73,1.83,2.79h3.67Zm-236.52,40.99l-.08,.11-3.55-5.39,3.67-5.57h7.33s3.55,5.4,3.55,5.4h-.16s-3.4,.15-3.4,.15l-1.8-2.73h-3.67s-1.83,2.79-1.83,2.79l1.8,2.73-1.85,2.51Zm196.26,14.57l.08-.11,3.55,5.39-3.67,5.57h-7.33s-3.55-5.4-3.55-5.4h.16s3.4-.15,3.4-.15l1.8,2.73h3.67s1.83-2.79,1.83-2.79l-1.8-2.73,1.85-2.51Zm13.1,4.15l-7.03-10.8,7.03-10.8,.04-.06h14.47l-.15,.24-1.53,2.48h-10.98l-5.3,8.14,5.3,8.14h10.98l1.53,2.48,.15,.24h-14.47l-.04-.06Zm-69.72,.19l-14.19-.07-7.17-10.73-.04-.06,7.24-10.98,.16,.23,1.68,2.4-5.49,8.33,5.4,8.09,10.7,.05,5.49-8.33,3.22,.08h.31s-7.24,10.99-7.24,10.99h-.08Zm79-8.16l1.56,2.66,.07,.12h-7.11l-3.67-5.57,3.67-5.56h7.11l-.07,.12-1.56,2.66h-3.6l-1.84,2.79,1.84,2.79h3.6Zm-42.14,6.42l1.53-2.48h10.98l5.3-8.14-5.3-8.14h-10.98l-1.53-2.48-.15-.24h14.47l.04,.06,7.03,10.8-7.03,10.8-.04,.06h-14.47l.15-.24Zm-12.93-13.36l-1.8,2.73-3.4-.14h-.16s3.55-5.4,3.55-5.4h7.33s3.67,5.56,3.67,5.56l-3.55,5.39-.08-.11-1.85-2.51,1.8-2.73-1.83-2.79h-3.67Zm18.02,0l-1.56-2.66-.07-.12h7.11l3.67,5.56-3.67,5.57h-7.11l.07-.12,1.56-2.66h3.6l1.84-2.79-1.84-2.79h-3.6Zm-9.15,13.27l-1.68-2.4,5.49-8.33-5.4-8.09-10.7-.05-5.49,8.33-3.22-.08h-.31s7.24-10.99,7.24-10.99h.08s14.19,.07,14.19,.07l7.17,10.73,.04,.06-7.24,10.98-.16-.23Zm46.21-57.82l1.56,2.66,.07,.12h-7.11l-3.67-5.57,3.67-5.56h7.11l-.07,.12-1.56,2.66h-3.6l-1.84,2.79,1.84,2.79h3.6Zm-89.69-8.29l1.85,2.51-1.8,2.73,1.83,2.79h3.67s1.8-2.73,1.8-2.73l3.4,.14h.16s-3.55,5.4-3.55,5.4h-7.33s-3.67-5.56-3.67-5.56l3.55-5.39,.08,.11Zm44.6-5.36l6.39,9.57,.04,.06-7.24,10.98-.16-.23-1.68-2.4,5.49-8.33-5.4-8.09-10.7-.05-5.49,8.33-3.22-.08h-.31s6.43-9.77,6.43-9.77h15.85Zm-47.91,.12l1.68,2.4-5.49,8.33,5.4,8.09,10.7,.05,5.49-8.33,3.22,.08h.31s-7.24,10.99-7.24,10.99h-.08s-14.19-.07-14.19-.07l-7.17-10.73-.04-.06,7.17-10.88h.13s.1,.13,.1,.13Zm-9.03,13.53l1.56,2.66,.07,.12h-7.11l-3.67-5.57,3.67-5.56h7.11l-.07,.12-1.56,2.66h-3.6l-1.84,2.79,1.84,2.79h3.6Zm87.39-9.91l-.08,.09-3.15-3.83h3.65s1.43,1.72,1.43,1.72l-1.85,2.02Zm19.72-3.55l-1.53,2.48h-10.98l-5.3,8.14,5.3,8.14h10.98l1.53,2.48,.15,.24h-14.47l-.04-.06-7.03-10.8,7.06-10.87,14.44,.05-.12,.19Zm-42.14,6.6l-1.56-2.66-.07-.12h7.11l3.67,5.56-3.67,5.57h-7.11l.07-.12,1.56-2.66h3.6l1.84-2.79-1.84-2.79h-3.6Zm10.11-6.8l6.2,9.53-7.03,10.8-.04,.06h-14.47l.15-.24,1.53-2.48h10.98l5.3-8.14-5.3-8.14h-10.98l-.86-1.39h14.51Zm-130.15,58.2l-1.8,2.73-3.4-.14h-.16s3.55-5.4,3.55-5.4h7.33s3.67,5.56,3.67,5.56l-3.55,5.39-.08-.11-1.85-2.51,1.8-2.73-1.83-2.79h-3.67Zm-89.02,13.36l1.53-2.48h10.98l5.3-8.14-5.3-8.14h-10.98l-1.53-2.48-.15-.24h14.47l.04,.06,7.03,10.8-7.03,10.8-.04,.06h-14.47l.15-.24Zm5.09-13.36l-1.56-2.66-.07-.12h7.11l3.67,5.56-3.67,5.57h-7.11l.07-.12,1.56-2.66h3.6l1.84-2.79-1.84-2.79h-3.6Zm14.68,10.76l.08-.11,3.55,5.39-3.67,5.57h-7.33s-3.55-5.4-3.55-5.4h.16s3.4-.15,3.4-.15l1.8,2.73h3.67s1.83-2.79,1.83-2.79l-1.8-2.73,1.85-2.51Zm-23.84,2.51l-1.68-2.4,5.49-8.33-5.4-8.09-10.7-.05-5.49,8.33-3.22-.08h-.31s7.24-10.99,7.24-10.99h.08s14.19,.07,14.19,.07l7.17,10.73,.04,.06-7.24,10.98-.16-.23Zm36.93,1.64l-7.03-10.8,7.03-10.8,.04-.06h14.47l-.15,.24-1.53,2.48h-10.98l-5.3,8.14,5.3,8.14h10.98l1.53,2.48,.15,.24h-14.47l-.04-.06Zm-45.8-14.91l-1.8,2.73-3.4-.14h-.16s3.55-5.4,3.55-5.4h7.33s3.67,5.56,3.67,5.56l-3.55,5.39-.08-.11-1.85-2.51,1.8-2.73-1.83-2.79h-3.67Zm-33.09,25.65l-1.56-2.66-.07-.12h7.11l3.67,5.56-3.67,5.57h-7.11l.07-.12,1.56-2.66h3.6l1.84-2.79-1.84-2.79h-3.6Zm88.16-18.71l1.56,2.66,.07,.12h-7.11l-3.67-5.57,3.67-5.56h7.11l-.07,.12-1.56,2.66h-3.6l-1.84,2.79,1.84,2.79h3.6Zm79.58,3.82l.08-.11,3.55,5.39-3.67,5.57h-7.33s-3.55-5.4-3.55-5.4h.16s3.4-.15,3.4-.15l1.8,2.73h3.67s1.83-2.79,1.83-2.79l-1.8-2.73,1.85-2.51Zm-19.77,2.6l1.53-2.48h10.98l5.3-8.14-5.3-8.14h-10.98l-1.53-2.48-.15-.24h14.47l.04,.06,7.03,10.8-7.03,10.8-.04,.06h-14.47l.15-.24Zm5.09-13.36l-1.56-2.66-.07-.12h7.11l3.67,5.56-3.67,5.57h-7.11l.07-.12,1.56-2.66h3.6l1.84-2.79-1.84-2.79h-3.6Zm37.06,6.94l1.56,2.66,.07,.12h-7.11l-3.67-5.57,3.67-5.56h7.11l-.07,.12-1.56,2.66h-3.6l-1.84,2.79,1.84,2.79h3.6Zm-9.28,7.97l-7.03-10.8,7.03-10.8,.04-.06h14.47l-.15,.24-1.53,2.48h-10.98l-5.3,8.14,5.3,8.14h10.98l1.53,2.48,.15,.24h-14.47l-.04-.06Zm-36.93-1.64l-1.68-2.4,5.49-8.33-5.4-8.09-10.7-.05-5.49,8.33-3.22-.08h-.31s7.24-10.99,7.24-10.99h.08s14.19,.07,14.19,.07l7.17,10.73,.04,.06-7.24,10.98-.16-.23Zm-32.71,1.83l-14.19-.07-7.17-10.73-.04-.06,7.24-10.98,.16,.23,1.68,2.4-5.49,8.33,5.4,8.09,10.7,.05,5.49-8.33,3.22,.08h.31s-7.24,10.99-7.24,10.99h-.08Zm84.01-73.11l-1.53,2.48h-10.98l-5.3,8.14,5.3,8.14h10.98l1.53,2.48,.15,.24h-14.47l-.04-.06-7.03-10.8,7.03-10.8h14.48s-.12,.18-.12,.18Zm-94.7,5.17l1.85,2.51-1.8,2.73,1.83,2.79h3.67s1.8-2.73,1.8-2.73l3.4,.14h.16s-3.55,5.4-3.55,5.4h-7.33s-3.67-5.56-3.67-5.56l3.55-5.39,.08,.11Zm-31.38,6.96l7.24,10.98-.04,.06-7.17,10.73-14.19,.07h-.08s-7.24-10.98-7.24-10.98h.31s3.22-.09,3.22-.09l5.49,8.33,10.7-.05,5.4-8.09-5.49-8.33,1.68-2.4,.16-.23Zm23.93,33.53l-1.68-2.4,5.49-8.33-5.4-8.09-10.7-.05-5.49,8.33-3.22-.08h-.31s7.24-10.99,7.24-10.99h.08s14.19,.07,14.19,.07l7.17,10.73,.04,.06-7.24,10.98-.16-.23Zm-38-6.55l1.8-2.73,3.4,.14h.16s-3.55,5.4-3.55,5.4h-7.33s-3.67-5.56-3.67-5.56l3.55-5.39,.08,.11,1.85,2.51-1.8,2.73,1.83,2.79h3.67Zm10.61-21.51l.08-.11,3.55,5.39-3.67,5.57h-7.33s-3.55-5.4-3.55-5.4h.16s3.4-.15,3.4-.15l1.8,2.73h3.67s1.83-2.79,1.83-2.79l-1.8-2.73,1.85-2.51Zm18.53,14.79l-1.8,2.73-3.4-.14h-.16s3.55-5.4,3.55-5.4h7.33s3.67,5.56,3.67,5.56l-3.55,5.39-.08-.11-1.85-2.51,1.8-2.73-1.83-2.79h-3.67Zm-47.13,6.9l1.56,2.66,.07,.12h-7.11l-3.67-5.57,3.67-5.56h7.11l-.07,.12-1.56,2.66h-3.6l-1.84,2.79,1.84,2.79h3.6Zm-9.28,7.97l-7.03-10.8,7.03-10.8,.04-.06h14.47l-.15,.24-1.53,2.48h-10.98l-5.3,8.14,5.3,8.14h10.98l1.53,2.48,.15,.24h-14.47l-.04-.06Zm32.4,.19l-14.19-.07-7.17-10.73-.04-.06,7.24-10.98,.16,.23,1.68,2.4-5.49,8.33,5.4,8.09,10.7,.05,5.49-8.33,3.22,.08h.31s-7.24,10.99-7.24,10.99h-.08Zm56.69-4.4l.08-.11,3.55,5.39-3.67,5.57h-7.33s-3.55-5.4-3.55-5.4h.16s3.4-.15,3.4-.15l1.8,2.73h3.67s1.83-2.79,1.83-2.79l-1.8-2.73,1.85-2.51Zm22.19-3.77l1.56,2.66,.07,.12h-7.11l-3.67-5.57,3.67-5.56h7.11l-.07,.12-1.56,2.66h-3.6l-1.84,2.79,1.84,2.79h3.6Zm3.24-16.39l-3.22,.08-5.49-8.33-10.7,.05-5.4,8.09,5.49,8.33-1.68,2.4-.16,.23-7.24-10.98,.04-.06,7.17-10.73,14.19-.07h.08s7.24,10.98,7.24,10.98h-.31Zm-7.14-15.97l-1.8,2.73-3.4-.14h-.16s3.55-5.4,3.55-5.4h7.33s3.67,5.56,3.67,5.56l-3.55,5.39-.08-.11-1.85-2.51,1.8-2.73-1.83-2.79h-3.67Zm40.34-3.37l-.08,.09-3.14-3.82h3.65s1.42,1.71,1.42,1.71l-1.85,2.02Zm-50.89,24.74l-.08,.11-3.55-5.39,3.67-5.57h7.33s3.55,5.4,3.55,5.4h-.16s-3.4,.15-3.4,.15l-1.8-2.73h-3.67s-1.83,2.79-1.83,2.79l1.8,2.73-1.85,2.51Zm-27.68,17.18l1.53-2.48h10.98l5.3-8.14-5.3-8.14h-10.98l-1.53-2.48-.15-.24h14.47l.04,.06,7.03,10.8-7.03,10.8-.04,.06h-14.47l.15-.24Zm5.09-13.36l-1.56-2.66-.07-.12h7.11l3.67,5.56-3.67,5.57h-7.11l.07-.12,1.56-2.66h3.6l1.84-2.79-1.84-2.79h-3.6Zm-68.91-25.18l-1.8,2.73-3.4-.14h-.16s3.55-5.4,3.55-5.4h7.33s3.67,5.56,3.67,5.56l-3.55,5.39-.08-.11-1.85-2.51,1.8-2.73-1.83-2.79h-3.67Zm96.69,40.34l-7.03-10.8,7.03-10.8,.04-.06h14.47l-.15,.24-1.53,2.48h-10.98l-5.3,8.14,5.3,8.14h10.98l1.53,2.48,.15,.24h-14.47l-.04-.06Zm-41.62-33.8l1.56,2.66,.07,.12h-7.11l-3.67-5.57,3.67-5.56h7.11l-.07,.12-1.56,2.66h-3.6l-1.84,2.79,1.84,2.79h3.6Zm73.98,33.99l-14.19-.07-7.17-10.73-.04-.06,7.24-10.98,.16,.23,1.68,2.4-5.49,8.33,5.4,8.09,10.7,.05,5.49-8.33,3.22,.08h.31s-7.24,10.99-7.24,10.99h-.08Zm-64.94-47.53l1.68,2.4-5.49,8.33,5.4,8.09,10.7,.05,5.49-8.33,3.22,.08h.31s-7.24,10.99-7.24,10.99h-.08s-14.19-.07-14.19-.07l-7.17-10.73-.04-.06,7.17-10.88h.13s.1,.13,.1,.13Zm-56.93,22.97l-3.22,.08-5.49-8.33-10.7,.05-5.4,8.09,5.49,8.33-1.68,2.4-.16,.23-7.24-10.98,.04-.06,7.17-10.73,14.19-.07h.08s7.24,10.98,7.24,10.98h-.31Zm112.79-16.29l-1.56-2.66-.07-.12h7.11l3.67,5.56-3.67,5.57h-7.11l.07-.12,1.56-2.66h3.6l1.84-2.79-1.84-2.79h-3.6Zm-8.08-6.81l6.41,9.59,.04,.06-7.24,10.98-.16-.23-1.68-2.4,5.49-8.33-5.4-8.09-10.7-.05-5.49,8.33-3.22-.08h-.31s6.44-9.78,6.44-9.78h15.83Zm18.18,0l6.21,9.54-7.03,10.8-.04,.06h-14.47l.15-.24,1.53-2.48h10.98l5.3-8.14-5.3-8.14h-10.98l-.86-1.4h14.52Zm-69.9,.21l-1.53,2.48h-10.98l-5.3,8.14,5.3,8.14h10.98l1.53,2.48,.15,.24h-14.47l-.04-.06-7.03-10.8,7.03-10.8h14.47s-.11,.18-.11,.18Zm-78.38,43.06l.08-.11,3.55,5.39-3.67,5.57h-7.33s-3.55-5.4-3.55-5.4h.16s3.4-.15,3.4-.15l1.8,2.73h3.67s1.83-2.79,1.83-2.79l-1.8-2.73,1.85-2.51Zm-10.84,21.71l1.8-2.73,3.4,.14h.16s-3.55,5.4-3.55,5.4h-7.33s-3.67-5.56-3.67-5.56l3.55-5.39,.08,.11,1.85,2.51-1.8,2.73,1.83,2.79h3.67Zm14.34-5.41l-14.19,.07h-.08s-7.24-10.98-7.24-10.98h.31s3.22-.09,3.22-.09l5.49,8.33,10.7-.05,5.4-8.09-5.49-8.33,1.68-2.4,.16-.23,7.24,10.98-.04,.06-7.17,10.73Zm4.21-31.08l-.08,.11-3.55-5.39,3.67-5.57h7.33s3.55,5.4,3.55,5.4h-.16s-3.4,.15-3.4,.15l-1.8-2.73h-3.67s-1.83,2.79-1.83,2.79l1.8,2.73-1.85,2.51Zm-24.1-23.11l1.85,2.51-1.8,2.73,1.83,2.79h3.67s1.8-2.73,1.8-2.73l3.4,.14h.16s-3.55,5.4-3.55,5.4h-7.33s-3.67-5.56-3.67-5.56l3.55-5.39,.08,.11Zm62.73-5.37l6.21,9.54-7.03,10.8-.04,.06h-14.47l.15-.24,1.53-2.48h10.98l5.3-8.14-5.3-8.14h-10.98l-.86-1.39h14.51Zm-18.29,0l6.4,9.58,.04,.06-7.24,10.98-.16-.23-1.68-2.4,5.49-8.33-5.4-8.09-10.7-.05-5.49,8.33-3.22-.08h-.31s6.43-9.77,6.43-9.77h15.85Zm8.19,6.8l-1.56-2.66-.07-.12h7.11l3.67,5.56-3.67,5.57h-7.11l.07-.12,1.56-2.66h3.6l1.84-2.79-1.84-2.79h-3.6Zm121.76,90.55l2.65-3.38h7.33s2.65,3.37,2.65,3.37h-3.66s-.79-1.01-.79-1.01h-3.67s-.81,1.03-.81,1.03h-3.7Zm94.81-.03l6.32-7.94,14.19-.06h.08s6.29,8.01,6.29,8.01h-3.59s-4.48-5.71-4.48-5.71l-10.7,.04-4.51,5.67h-3.6Zm-102.01-.01l6.32-7.94,14.19-.06h.08s6.29,8.01,6.29,8.01h-3.59s-4.49-5.71-4.49-5.71l-10.7,.04-4.51,5.68-3.6-.02Zm109.21,.01l2.65-3.38h7.33s2.64,3.36,2.64,3.36h-3.65s-.79-1-.79-1h-3.67s-.8,1.01-.8,1.01h-3.71ZM24.14,352.87l-1.53,2.48H11.63l-5.3,8.14,5.3,8.14h10.98l1.53,2.48,.15,.24H9.81l-.04-.06-3.89-5.99v-9.63l3.89-5.99h14.48s-.11,.18-.11,.18Zm-9.06,32.39l-1.8,2.73-3.4-.14h-.16s3.55-5.4,3.55-5.4h7.33s3.67,5.56,3.67,5.56l-3.55,5.39-.08-.11-1.85-2.51,1.8-2.73-1.83-2.79h-3.67Zm-5.13-8.34l14.19,.07,7.17,10.73,.04,.06-7.24,10.98-.16-.23-1.68-2.4,5.49-8.33-5.4-8.09-10.7-.05-5.49,8.33h-.28v-5.02l3.99-6.05h.08Zm86.67,73.07l6.3-7.92,14.19-.06h.08s6.31,8.03,6.31,8.03h-3.59s-4.49-5.73-4.49-5.73l-10.7,.04-4.49,5.64h-3.6Zm7.2,0l2.63-3.35h7.33s2.65,3.37,2.65,3.37h-3.66s-.79-1.01-.79-1.01h-3.67s-.8,1.01-.8,1.01l-3.69-.03Zm152.17-12.07l-7.24-10.98,.04-.06,7.17-10.73,14.19-.07h.08s7.24,10.98,7.24,10.98h-.31s-3.22,.09-3.22,.09l-5.49-8.33-10.7,.05-5.4,8.09,5.49,8.33-1.68,2.4-.16,.23Zm-28.06,12.02l-1.68-2.4,5.49-8.33-5.4-8.09-10.7-.05-5.49,8.33-3.22-.08h-.31s7.24-10.99,7.24-10.99h.08s14.19,.07,14.19,.07l7.17,10.73,.04,.06-7.13,10.83h-.22s-.05-.08-.05-.08Zm107.44-2.53h10.98l5.3-8.14-5.3-8.14h-10.98l-1.53-2.48-.15-.24h14.47l.04,.06,3.9,6v9.61l-3.86,5.94h-14.48s.08-.13,.08-.13l1.53-2.48Zm-116.3-10.74l-1.8,2.73-3.4-.14h-.16s3.55-5.4,3.55-5.4h7.33s3.67,5.56,3.67,5.56l-3.55,5.39-.08-.11-1.85-2.51,1.8-2.73-1.83-2.79h-3.67Zm-63.17,13.33l-4.47-5.69,1.68-2.01,.16-.2,6.23,7.93-3.61-.03Zm16.08-6.27l1.56,2.66,.07,.12h-7.11l-3.67-5.57,3.67-5.56h7.11l-.07,.12-1.56,2.66h-3.6l-1.84,2.79,1.84,2.79h3.6Zm7.74,6.29l-6.02-9.01-.04-.06,7.24-10.98,.16,.23,1.68,2.4-5.49,8.33,5.4,8.09,10.7,.05,5.49-8.33,3.22,.08h.31s-6.05,9.19-6.05,9.19h-16.61Zm-18.11,0l-5.93-9.12,7.03-10.8,.04-.06h14.47l-.15,.24-1.53,2.48h-10.98l-5.3,8.14,5.3,8.14h10.98l.61,.98h-14.54Zm90.16-3.33l.08-.1,2.69,3.43h-3.67s-.95-1.22-.95-1.22l1.85-2.11Zm69.33-10.02l-1.8,2.73-3.4-.14h-.16s3.55-5.4,3.55-5.4h7.33s3.67,5.56,3.67,5.56l-3.55,5.39-.08-.11-1.85-2.51,1.8-2.73-1.83-2.79h-3.67Zm17.83-.14l-1.56-2.66-.07-.12h7.11l3.67,5.56-3.67,5.57h-7.11l.07-.12,1.56-2.66h3.6l1.84-2.79-1.84-2.79h-3.6Zm-57.2,13.49l-6.02-9.01-.04-.06,7.24-10.98,.16,.23,1.68,2.4-5.49,8.33,5.4,8.09,10.7,.05,5.49-8.33,3.22,.08h.31s-6.05,9.19-6.05,9.19h-16.61Zm48.22-.07l-1.68-2.4,5.49-8.33-5.4-8.09-10.7-.05-5.49,8.33-3.22-.08h-.31s7.24-10.99,7.24-10.99h.08s14.19,.07,14.19,.07l7.17,10.73,.04,.06-7.4,10.75Zm-66.35,.07l-5.93-9.12,7.03-10.8,.04-.06h14.47l-.15,.24-1.53,2.48h-10.98l-5.3,8.14,5.3,8.14h10.98l.61,.99-14.54-.02Zm-5.74,0l-4.47-5.7,1.68-2.01,.16-.2,6.22,7.92-3.59-.02Zm16.12-6.27l1.56,2.66,.07,.12h-7.11l-3.67-5.57,3.67-5.56h7.11l-.07,.12-1.56,2.66h-3.6l-1.84,2.79,1.84,2.79h3.6Zm-37.06-7.2l-1.56-2.66-.07-.12h7.11l3.67,5.56-3.67,5.57h-7.11l.07-.12,1.56-2.66h3.6l1.84-2.79-1.84-2.79h-3.6Zm-226.16,13.48l-.78-1h-3.67s-.42,.53-.42,.53v-2.9h5.9s2.66,3.39,2.66,3.39l-3.68-.02Zm4.43-8l6.28,8h-3.58s-4.48-5.7-4.48-5.7l-7.53,.03v-2.29l9.23-.04h.08Zm38.69,8l-4.48-5.7,1.68-2.01,.16-.2,6.22,7.91h-3.59Zm81.04-13.48l-1.56-2.66-.07-.12h7.11l3.67,5.56-3.67,5.57h-7.11l.07-.12,1.56-2.66h3.6l1.84-2.79-1.84-2.79h-3.6Zm-8.95,13.41l-1.68-2.4,5.49-8.33-5.4-8.09-10.7-.05-5.49,8.33-3.22-.08h-.31s7.24-10.99,7.24-10.99h.08s14.19,.07,14.19,.07l7.17,10.73,.04,.06-7.14,10.83h-.21s-.06-.08-.06-.08Zm5.4-2.53h10.98l5.3-8.14-5.3-8.14h-10.98l-1.53-2.48-.15-.24h14.47l.04,.06,7.03,10.8-6.99,10.75h-14.48s.08-.13,.08-.13l1.53-2.48Zm18.45-.72l.08-.1,2.7,3.44-3.68-.02-.95-1.21,1.85-2.11Zm-32.71-10.02l-1.8,2.73-3.4-.14h-.16s3.55-5.4,3.55-5.4h7.33s3.67,5.56,3.67,5.56l-3.55,5.39-.08-.11-1.85-2.51,1.8-2.73-1.83-2.79h-3.67Zm-47.13,7.06l1.56,2.66,.07,.12h-7.11l-3.67-5.57,3.67-5.56h7.11l-.07,.12-1.56,2.66h-3.6l-1.84,2.79,1.84,2.79h3.6Zm-10.38,6.28l-5.93-9.12,7.03-10.8,.04-.06h14.47l-.15,.24-1.53,2.48h-10.98l-5.3,8.14,5.3,8.14h10.98l.61,.98h-14.54Zm18.15,0l-6.02-9.01-.04-.06,7.24-10.98,.16,.23,1.68,2.4-5.49,8.33,5.4,8.09,10.7,.05,5.49-8.33,3.22,.08h.31s-6.04,9.18-6.04,9.18l-16.62,.02Zm155.62-2.61h10.98l5.3-8.14-5.3-8.14h-10.98l-1.53-2.48-.15-.24h14.47l.04,.06,7.03,10.8-6.99,10.75h-14.48s.08-.13,.08-.13l1.53-2.48Zm109.65-35.11l-7.24-10.98h.31s3.22-.09,3.22-.09l5.49,8.33,7.3-.03v2.73l-9,.05h-.08Zm0-51.41l-6.75-8.22h3.59s4.94,6.02,4.94,6.02l7.3-.03v2.19l-9,.04h-.08Zm3.97-8.2l1.24,1.51h3.67s.2-.24,.2-.24v2.5h-5.67s-3.1-3.78-3.1-3.78h3.67ZM15.18,390.69l7.24,10.98h-.31s-3.22,.09-3.22,.09l-5.49-8.33-7.53,.04v-2.73l9.23-.05h.08Zm84.54-38.02l4.95,6.03-1.68,1.93-.16,.19-6.68-8.13h3.57Zm6.57,3.74l-.08,.09-3.15-3.84h3.67s1.42,1.73,1.42,1.73l-1.85,2.02Z"/>
      <g>
        <g>
          <path class="cls-3" d="M335.62,245.18c-1,0-1.93-.22-2.8-.65-.87-.44-1.57-1.05-2.09-1.84-.52-.79-.79-1.65-.79-2.57s.25-1.75,.76-2.54,1.2-1.41,2.09-1.86c.89-.45,1.83-.67,2.83-.67s1.95,.22,2.84,.67c.89,.45,1.59,1.07,2.09,1.86,.51,.79,.76,1.64,.76,2.54s-.26,1.78-.79,2.57c-.53,.79-1.22,1.41-2.1,1.84s-1.81,.65-2.8,.65Zm0-.77c.84,0,1.64-.18,2.38-.55,.74-.37,1.34-.89,1.78-1.56,.45-.67,.67-1.4,.66-2.19,0-.77-.21-1.48-.64-2.15s-1.02-1.2-1.77-1.58c-.75-.38-1.55-.57-2.41-.57s-1.66,.19-2.41,.57c-.76,.38-1.35,.91-1.77,1.58s-.64,1.39-.64,2.15,.22,1.52,.67,2.19c.44,.67,1.03,1.19,1.77,1.56,.74,.37,1.53,.55,2.38,.55Zm-1.08-1.14h-1.1v-6.26h2.23c.54,0,.95,.07,1.24,.21,.28,.14,.5,.34,.66,.6s.24,.55,.24,.86c0,.36-.11,.7-.34,1.02-.22,.32-.57,.57-1.04,.75,.24,.14,.51,.44,.79,.89l1.16,1.92h-1.26l-.97-1.63-.22-.38c-.26-.41-.45-.62-.57-.62h-.82v2.63Zm0-3.39h.77c.51,0,.87-.12,1.06-.35s.29-.5,.29-.78c0-.18-.04-.34-.12-.48s-.19-.26-.35-.36c-.15-.1-.43-.14-.81-.14h-.85v2.12Z"/>
          <path class="cls-3" d="M45.67,234.82c2.18,0,4.23,.42,6.15,1.24,1.92,.83,3.6,1.96,5.04,3.4,1.44,1.44,2.57,3.12,3.4,5.03,.83,1.92,1.24,3.97,1.24,6.15s-.41,4.23-1.24,6.15c-.83,1.92-1.96,3.59-3.4,5.01-1.44,1.42-3.12,2.55-5.04,3.38-1.92,.83-3.97,1.24-6.15,1.24s-4.23-.41-6.15-1.24c-1.92-.83-3.59-1.95-5.01-3.38-1.42-1.42-2.55-3.09-3.37-5.01-.83-1.92-1.24-3.97-1.24-6.15s.41-4.23,1.24-6.15c.83-1.92,1.95-3.6,3.37-5.03,1.42-1.44,3.09-2.57,5.01-3.4,1.92-.83,3.97-1.24,6.15-1.24Zm0,1.59c-1.98,0-3.84,.37-5.56,1.12-1.72,.75-3.22,1.76-4.49,3.05-1.27,1.29-2.28,2.8-3.03,4.54-.74,1.74-1.12,3.58-1.12,5.53s.37,3.84,1.12,5.56c.74,1.72,1.75,3.22,3.03,4.49,1.27,1.27,2.77,2.28,4.49,3.02,1.72,.75,3.57,1.12,5.56,1.12s3.8-.37,5.53-1.12c1.74-.74,3.25-1.75,4.54-3.02,1.29-1.27,2.31-2.77,3.05-4.49,.75-1.72,1.12-3.57,1.12-5.56s-.37-3.8-1.12-5.53c-.74-1.73-1.76-3.25-3.05-4.54-1.29-1.29-2.8-2.31-4.54-3.05-1.74-.74-3.58-1.12-5.53-1.12Z"/>
          <path class="cls-3" d="M82.08,236.41c-1.98,0-3.84,.37-5.56,1.12-1.72,.75-3.22,1.76-4.49,3.05-1.27,1.29-2.28,2.8-3.03,4.54-.74,1.74-1.12,3.58-1.12,5.53s.37,3.84,1.12,5.56c.74,1.72,1.75,3.22,3.03,4.49,1.27,1.27,2.77,2.28,4.49,3.02,1.72,.75,3.57,1.12,5.56,1.12,2.18,0,4.27-.46,6.25-1.39,1.98-.93,3.62-2.23,4.91-3.92,.13-.2,.33-.3,.6-.3,.53,0,.79,.27,.79,.79,0,.13-.07,.3-.2,.5-1.42,1.82-3.22,3.26-5.38,4.32s-4.49,1.59-6.97,1.59c-2.18,0-4.23-.41-6.15-1.24-1.92-.83-3.59-1.95-5.01-3.38-1.42-1.42-2.55-3.09-3.37-5.01-.83-1.92-1.24-3.97-1.24-6.15,0-1.62,.24-3.18,.72-4.69,.48-1.5,1.14-2.89,1.98-4.14,.84-1.26,1.85-2.38,3.03-3.37,1.17-.99,2.47-1.79,3.89-2.38,.96-.43,1.94-.75,2.95-.94,1.01-.2,2.04-.3,3.1-.3,2.15,0,4.22,.41,6.2,1.22,1.98,.81,3.69,1.96,5.11,3.45,.26,.26,.42,.45,.47,.57s.07,.24,.07,.37c0,.46-.25,.69-.74,.69-.13,0-.25-.03-.35-.07-.1-.05-.28-.21-.55-.47-1.32-1.32-2.86-2.35-4.61-3.08-1.75-.73-3.59-1.09-5.51-1.09Z"/>
          <path class="cls-3" d="M100.83,235.61c0-.53,.27-.79,.79-.79s.79,.27,.79,.79v19.99c0,1.26,.24,2.44,.72,3.55s1.12,2.08,1.94,2.93c.81,.84,1.78,1.51,2.9,2.01,1.12,.5,2.33,.74,3.62,.74s2.45-.24,3.57-.72c1.12-.48,2.11-1.14,2.95-1.98,.84-.84,1.51-1.82,2.01-2.93,.5-1.11,.75-2.29,.75-3.55v-20.14c0-.53,.26-.79,.79-.79s.79,.27,.79,.79v20.14c0,1.49-.29,2.89-.87,4.19s-1.36,2.45-2.36,3.42-2.14,1.74-3.45,2.31-2.7,.84-4.19,.84-2.89-.28-4.19-.84c-1.31-.56-2.45-1.33-3.42-2.31s-1.74-2.12-2.31-3.42c-.56-1.31-.84-2.7-.84-4.19v-20.04Z"/>
          <path class="cls-3" d="M128.86,235.66c0-.2,.07-.38,.22-.55,.15-.16,.32-.25,.52-.25,.27,0,.47,.08,.62,.25,.15,.17,.22,.35,.22,.55v29.17h13.84c.53,0,.79,.28,.79,.84,0,.2-.07,.37-.22,.52-.15,.15-.34,.22-.57,.22h-14.78c-.26,0-.44-.07-.52-.22-.08-.15-.12-.32-.12-.52v-30.01Z"/>
          <path class="cls-3" d="M148.26,235.61c0-.53,.27-.79,.79-.79s.79,.27,.79,.79v19.99c0,1.26,.24,2.44,.72,3.55s1.12,2.08,1.94,2.93c.81,.84,1.78,1.51,2.9,2.01,1.12,.5,2.33,.74,3.62,.74s2.45-.24,3.57-.72c1.12-.48,2.11-1.14,2.95-1.98,.84-.84,1.51-1.82,2.01-2.93,.5-1.11,.75-2.29,.75-3.55v-20.14c0-.53,.26-.79,.79-.79s.79,.27,.79,.79v20.14c0,1.49-.29,2.89-.87,4.19s-1.36,2.45-2.36,3.42-2.14,1.74-3.45,2.31-2.7,.84-4.19,.84-2.89-.28-4.19-.84c-1.31-.56-2.45-1.33-3.42-2.31s-1.74-2.12-2.31-3.42c-.56-1.31-.84-2.7-.84-4.19v-20.04Z"/>
          <path class="cls-3" d="M194.6,257.29c0-1.03-.2-1.93-.6-2.7s-.95-1.46-1.66-2.03-1.55-1.09-2.51-1.54c-.96-.45-1.98-.87-3.08-1.26-1.03-.3-2.11-.66-3.25-1.09s-2.19-.94-3.15-1.54c-.96-.6-1.75-1.28-2.38-2.06-.63-.78-.94-1.66-.94-2.66,0-1.16,.29-2.21,.87-3.15,.58-.94,1.32-1.74,2.21-2.41,.89-.66,1.89-1.17,3-1.54,1.11-.36,2.19-.54,3.25-.54,.69,0,1.42,.07,2.18,.22,.76,.15,1.51,.38,2.26,.7,.74,.31,1.47,.73,2.18,1.24,.71,.51,1.36,1.13,1.96,1.86,.3,.4,.3,.74,0,1.04s-.6,.42-.89,.35c-.27-.07-.45-.2-.55-.4-.53-.76-1.11-1.37-1.74-1.81-.63-.45-1.27-.79-1.91-1.04-.64-.25-1.27-.41-1.86-.5s-1.14-.12-1.64-.12c-.76,0-1.59,.11-2.48,.32-.89,.22-1.72,.57-2.48,1.07-.76,.5-1.4,1.14-1.91,1.91-.51,.78-.77,1.71-.77,2.8,0,.73,.25,1.37,.77,1.94,.51,.56,1.16,1.07,1.94,1.51,.78,.45,1.62,.84,2.53,1.17,.91,.33,1.74,.63,2.51,.89,1.52,.6,2.88,1.18,4.09,1.76,1.21,.58,2.22,1.22,3.05,1.93,.83,.71,1.45,1.52,1.88,2.43s.64,1.99,.64,3.25-.27,2.49-.82,3.6c-.55,1.11-1.28,2.07-2.21,2.88-.93,.81-1.98,1.46-3.15,1.93-1.17,.48-2.41,.72-3.7,.72-.93,0-1.88-.12-2.88-.35-.99-.23-1.93-.56-2.83-.99-.89-.43-1.7-.94-2.43-1.54-.73-.6-1.27-1.27-1.64-2.03-.17-.36-.17-.67,0-.92,.16-.25,.4-.37,.69-.37,.36,0,.63,.13,.79,.4,.33,.66,.83,1.26,1.51,1.79,.68,.53,1.41,.98,2.21,1.34s1.6,.65,2.43,.84c.83,.2,1.55,.3,2.18,.3,1.06,0,2.08-.19,3.08-.57,.99-.38,1.88-.91,2.65-1.59,.78-.68,1.4-1.48,1.86-2.41s.69-1.93,.69-3.02Z"/>
          <path class="cls-3" d="M230.75,236.41c-1.98,0-3.84,.37-5.56,1.12-1.72,.75-3.22,1.76-4.49,3.05-1.27,1.29-2.28,2.8-3.03,4.54-.74,1.74-1.12,3.58-1.12,5.53s.37,3.84,1.12,5.56c.74,1.72,1.75,3.22,3.03,4.49,1.27,1.27,2.77,2.28,4.49,3.02,1.72,.75,3.57,1.12,5.56,1.12,2.18,0,4.27-.46,6.25-1.39,1.98-.93,3.62-2.23,4.91-3.92,.13-.2,.33-.3,.6-.3,.53,0,.79,.27,.79,.79,0,.13-.07,.3-.2,.5-1.42,1.82-3.22,3.26-5.38,4.32s-4.49,1.59-6.97,1.59c-2.18,0-4.23-.41-6.15-1.24-1.92-.83-3.59-1.95-5.01-3.38-1.42-1.42-2.55-3.09-3.37-5.01-.83-1.92-1.24-3.97-1.24-6.15,0-1.62,.24-3.18,.72-4.69,.48-1.5,1.14-2.89,1.98-4.14,.84-1.26,1.85-2.38,3.03-3.37,1.17-.99,2.47-1.79,3.89-2.38,.96-.43,1.94-.75,2.95-.94,1.01-.2,2.04-.3,3.1-.3,2.15,0,4.22,.41,6.2,1.22,1.98,.81,3.69,1.96,5.11,3.45,.26,.26,.42,.45,.47,.57s.07,.24,.07,.37c0,.46-.25,.69-.74,.69-.13,0-.25-.03-.35-.07-.1-.05-.28-.21-.55-.47-1.32-1.32-2.86-2.35-4.61-3.08-1.75-.73-3.59-1.09-5.51-1.09Z"/>
          <path class="cls-3" d="M271.97,265.28c.1,.2,.11,.4,.02,.6-.08,.2-.22,.35-.42,.45-.23,.1-.45,.11-.64,.03s-.33-.22-.4-.42l-4.42-10.12h-15.83l-4.36,10.12c-.07,.2-.2,.34-.4,.42-.2,.08-.41,.07-.64-.03-.2-.1-.34-.25-.42-.45-.08-.2-.07-.4,.02-.6l12.95-29.92c.17-.36,.43-.55,.79-.55,.33,0,.58,.2,.74,.6l13,29.87Zm-20.99-11.06h14.44l-7.19-16.62-7.24,16.62Z"/>
          <path class="cls-3" d="M278.52,235.61c0-.53,.27-.79,.79-.79h8.48c1.09,0,2.13,.22,3.12,.65,.99,.43,1.86,1.01,2.6,1.73,.74,.73,1.34,1.58,1.79,2.56,.45,.98,.67,2.01,.67,3.1s-.22,2.12-.67,3.1c-.45,.98-1.04,1.83-1.79,2.55-.74,.73-1.6,1.31-2.58,1.74-.98,.43-2.01,.64-3.1,.64l9.03,14.29c.3,.46,.23,.83-.2,1.09-.2,.13-.4,.16-.6,.1-.2-.07-.36-.18-.5-.35l-9.62-15.13h-5.85v14.74c0,.53-.27,.79-.79,.79s-.79-.26-.79-.79v-30.01Zm1.59,.79v12.9h7.79c.93,0,1.79-.16,2.58-.5,.79-.33,1.48-.79,2.06-1.39,.58-.6,1.03-1.28,1.36-2.06,.33-.78,.5-1.61,.5-2.51s-.17-1.78-.5-2.56c-.33-.78-.79-1.45-1.36-2.03-.58-.58-1.27-1.03-2.06-1.37-.79-.33-1.65-.5-2.58-.5h-7.79Z"/>
          <path class="cls-3" d="M328.92,250.64c0,2.18-.41,4.23-1.24,6.15-.83,1.92-1.95,3.59-3.37,5.01-1.42,1.42-3.1,2.55-5.04,3.38-1.93,.83-3.99,1.24-6.18,1.24h-9.03c-.2,0-.38-.07-.55-.22-.16-.15-.25-.34-.25-.57v-30.01c0-.23,.08-.42,.25-.57,.17-.15,.35-.22,.55-.22h9.03c2.18,0,4.24,.42,6.18,1.24,1.94,.83,3.61,1.95,5.04,3.37,1.42,1.42,2.55,3.1,3.37,5.04,.83,1.93,1.24,3.99,1.24,6.18Zm-24.06-14.24v28.43h8.23c1.95,0,3.8-.37,5.53-1.12,1.74-.74,3.25-1.76,4.54-3.05,1.29-1.29,2.31-2.79,3.05-4.51,.74-1.72,1.12-3.56,1.12-5.51s-.37-3.89-1.12-5.63c-.75-1.73-1.76-3.24-3.05-4.51-1.29-1.27-2.8-2.27-4.54-3-1.74-.73-3.58-1.09-5.53-1.09h-8.23Z"/>
        </g>
        <g>
          <path class="cls-3" d="M139.73,282.8c0-.09,.04-.16,.13-.24,.09-.07,.19-.11,.3-.11,.15,0,.27,.04,.36,.11,.09,.07,.13,.15,.13,.24v12.61h7.99c.31,0,.46,.12,.46,.36,0,.09-.04,.16-.13,.23s-.2,.1-.33,.1h-8.54c-.15,0-.25-.03-.3-.1-.05-.06-.07-.14-.07-.23v-12.98Z"/>
          <path class="cls-3" d="M170.75,295.61c.06,.09,.06,.17,.01,.26-.05,.09-.13,.15-.24,.19-.13,.04-.26,.05-.37,.01-.11-.04-.19-.1-.23-.18l-2.55-4.38h-9.14l-2.52,4.38c-.04,.09-.11,.15-.23,.18-.11,.04-.24,.03-.37-.01-.11-.04-.2-.11-.24-.19-.05-.09-.04-.17,.01-.26l7.48-12.94c.1-.16,.25-.24,.46-.24,.19,0,.33,.09,.43,.26l7.51,12.91Zm-12.12-4.78h8.34l-4.15-7.19-4.18,7.19Z"/>
          <path class="cls-3" d="M183.27,282.37c.31,0,.46,.11,.46,.34s-.15,.34-.46,.34h-4.78v12.7c0,.23-.15,.34-.46,.34s-.46-.11-.46-.34v-12.7h-4.78c-.31,0-.46-.11-.46-.34s.15-.34,.46-.34h10.48Z"/>
          <path class="cls-3" d="M201.89,295.61c.06,.09,.06,.17,.01,.26-.05,.09-.13,.15-.24,.19-.13,.04-.26,.05-.37,.01-.11-.04-.19-.1-.23-.18l-2.55-4.38h-9.14l-2.52,4.38c-.04,.09-.11,.15-.23,.18-.11,.04-.24,.03-.37-.01-.11-.04-.2-.11-.24-.19-.05-.09-.04-.17,.01-.26l7.48-12.94c.1-.16,.25-.24,.46-.24,.19,0,.33,.09,.43,.26l7.51,12.91Zm-12.12-4.78h8.34l-4.15-7.19-4.18,7.19Z"/>
          <path class="cls-3" d="M210.71,282.74c.02-.13,.13-.22,.34-.28,.25-.04,.43,.02,.54,.19l6.56,12.16,6.56-12.16c.13-.17,.31-.24,.51-.21s.33,.13,.37,.3l2.43,12.98c.04,.23-.1,.36-.4,.39-.29,.03-.46-.07-.52-.3l-2.18-11.76-6.36,11.82c-.08,.16-.2,.24-.36,.24s-.28-.02-.36-.06c-.06-.03-.11-.09-.17-.17l-6.33-11.82-2.18,11.76c-.06,.23-.23,.33-.52,.3-.31-.03-.44-.16-.4-.39l2.43-12.98Z"/>
        </g>
        <g>
          <circle class="cls-6" cx="168.26" cy="125.69" r="67.5"/>
          <circle class="cls-8" cx="232.45" cy="122.87" r="39.71"/>
        </g>
      </g>
    </g>
  </g>
</svg>