<?xml version="1.0" encoding="utf-8"?>
<!-- Generator: Adobe Illustrator 26.4.1, SVG Export Plug-In . SVG Version: 6.00 Build 0)  -->
<svg version="1.1" id="Layer_1" xmlns="http://www.w3.org/2000/svg" xmlns:xlink="http://www.w3.org/1999/xlink" x="0px" y="0px"
	 viewBox="0 0 792 159.4" style="enable-background:new 0 0 792 159.4;" xml:space="preserve">
<style type="text/css">
	.st0{fill:#FFFFFF;}
	.st1{fill:#FFFFFF;stroke:#FFFFFF;stroke-width:0.9509;stroke-miterlimit:10;}
	.st2{fill:none;stroke:url(#SVGID_1_);stroke-width:8.7979;stroke-miterlimit:10;}
	
		.st3{fill:none;stroke:url(#SVGID_00000124155839628817558950000013126957618807427740_);stroke-width:7.6455;stroke-miterlimit:10;}
</style>
<g>
	<path class="st0" d="M729.5,73.5c-1.6,0-3.1-0.4-4.5-1.1c-1.4-0.7-2.5-1.7-3.4-3c-0.8-1.3-1.3-2.7-1.3-4.1c0-1.5,0.4-2.8,1.2-4.1
		s1.9-2.3,3.4-3c1.4-0.7,3-1.1,4.6-1.1c1.6,0,3.1,0.4,4.6,1.1s2.6,1.7,3.4,3c0.8,1.3,1.2,2.6,1.2,4.1c0,1.5-0.4,2.9-1.3,4.1
		c-0.8,1.3-2,2.3-3.4,3C732.6,73.1,731.1,73.5,729.5,73.5z M729.5,72.2c1.4,0,2.6-0.3,3.8-0.9c1.2-0.6,2.2-1.4,2.9-2.5
		c0.7-1.1,1.1-2.3,1.1-3.5c0-1.2-0.3-2.4-1-3.5c-0.7-1.1-1.6-1.9-2.9-2.5c-1.2-0.6-2.5-0.9-3.9-0.9c-1.4,0-2.7,0.3-3.9,0.9
		c-1.2,0.6-2.2,1.5-2.9,2.5c-0.7,1.1-1,2.2-1,3.5c0,1.3,0.4,2.4,1.1,3.5c0.7,1.1,1.7,1.9,2.9,2.5C726.9,71.9,728.1,72.2,729.5,72.2z
		 M727.8,70.4H726V60.3h3.6c0.9,0,1.5,0.1,2,0.3c0.5,0.2,0.8,0.6,1.1,1c0.3,0.4,0.4,0.9,0.4,1.4c0,0.6-0.2,1.1-0.5,1.6
		c-0.4,0.5-0.9,0.9-1.7,1.2c0.4,0.2,0.8,0.7,1.3,1.4l1.9,3.1h-2l-1.6-2.6l-0.4-0.6c-0.4-0.7-0.7-1-0.9-1h-1.3V70.4z M727.8,64.9h1.2
		c0.8,0,1.4-0.2,1.7-0.6c0.3-0.4,0.5-0.8,0.5-1.3c0-0.3-0.1-0.5-0.2-0.8s-0.3-0.4-0.6-0.6c-0.2-0.2-0.7-0.2-1.3-0.2h-1.4V64.9z"/>
	<path class="st1" d="M262.7,56.8c3.5,0,6.8,0.7,9.9,2c3.1,1.3,5.8,3.2,8.1,5.5c2.3,2.3,4.1,5,5.5,8.1c1.3,3.1,2,6.4,2,9.9
		c0,3.5-0.7,6.8-2,9.9c-1.3,3.1-3.2,5.8-5.5,8.1c-2.3,2.3-5,4.1-8.1,5.4c-3.1,1.3-6.4,2-9.9,2s-6.8-0.7-9.9-2
		c-3.1-1.3-5.8-3.1-8.1-5.4c-2.3-2.3-4.1-5-5.4-8.1c-1.3-3.1-2-6.4-2-9.9c0-3.5,0.7-6.8,2-9.9c1.3-3.1,3.1-5.8,5.4-8.1
		c2.3-2.3,5-4.1,8.1-5.5C255.8,57.4,259.1,56.8,262.7,56.8z M262.7,59.3c-3.2,0-6.2,0.6-8.9,1.8c-2.8,1.2-5.2,2.8-7.2,4.9
		c-2.1,2.1-3.7,4.5-4.9,7.3c-1.2,2.8-1.8,5.8-1.8,8.9c0,3.2,0.6,6.2,1.8,8.9c1.2,2.8,2.8,5.2,4.9,7.2c2,2.1,4.5,3.7,7.2,4.9
		c2.8,1.2,5.8,1.8,8.9,1.8c3.1,0,6.1-0.6,8.9-1.8c2.8-1.2,5.2-2.8,7.3-4.9c2.1-2.1,3.7-4.5,4.9-7.2c1.2-2.8,1.8-5.8,1.8-8.9
		c0-3.1-0.6-6.1-1.8-8.9c-1.2-2.8-2.8-5.2-4.9-7.3c-2.1-2.1-4.5-3.7-7.3-4.9C268.8,59.9,265.8,59.3,262.7,59.3z"/>
	<path class="st1" d="M321.3,59.3c-3.2,0-6.2,0.6-8.9,1.8c-2.8,1.2-5.2,2.8-7.2,4.9c-2.1,2.1-3.7,4.5-4.9,7.3
		c-1.2,2.8-1.8,5.8-1.8,8.9c0,3.2,0.6,6.2,1.8,8.9c1.2,2.8,2.8,5.2,4.9,7.2c2,2.1,4.5,3.7,7.2,4.9c2.8,1.2,5.8,1.8,8.9,1.8
		c3.5,0,6.9-0.7,10.1-2.2c3.2-1.5,5.8-3.6,7.9-6.3c0.2-0.3,0.5-0.5,1-0.5c0.9,0,1.3,0.4,1.3,1.3c0,0.2-0.1,0.5-0.3,0.8
		c-2.3,2.9-5.2,5.2-8.7,6.9s-7.2,2.6-11.2,2.6c-3.5,0-6.8-0.7-9.9-2c-3.1-1.3-5.8-3.1-8.1-5.4c-2.3-2.3-4.1-5-5.4-8.1
		c-1.3-3.1-2-6.4-2-9.9c0-2.6,0.4-5.1,1.2-7.5c0.8-2.4,1.8-4.6,3.2-6.7c1.4-2,3-3.8,4.9-5.4c1.9-1.6,4-2.9,6.3-3.8
		c1.5-0.7,3.1-1.2,4.8-1.5c1.6-0.3,3.3-0.5,5-0.5c3.5,0,6.8,0.7,10,2c3.2,1.3,5.9,3.2,8.2,5.6c0.4,0.4,0.7,0.7,0.8,0.9
		c0.1,0.2,0.1,0.4,0.1,0.6c0,0.7-0.4,1.1-1.2,1.1c-0.2,0-0.4,0-0.6-0.1c-0.2-0.1-0.5-0.3-0.9-0.8c-2.1-2.1-4.6-3.8-7.4-5
		C327.3,59.9,324.4,59.3,321.3,59.3z"/>
	<path class="st1" d="M351.5,58c0-0.9,0.4-1.3,1.3-1.3c0.9,0,1.3,0.4,1.3,1.3v32.2c0,2,0.4,3.9,1.2,5.7c0.8,1.8,1.8,3.4,3.1,4.7
		c1.3,1.4,2.9,2.4,4.7,3.2c1.8,0.8,3.8,1.2,5.8,1.2c2,0,3.9-0.4,5.8-1.2c1.8-0.8,3.4-1.8,4.8-3.2c1.4-1.4,2.4-2.9,3.2-4.7
		c0.8-1.8,1.2-3.7,1.2-5.7V57.9c0-0.9,0.4-1.3,1.3-1.3c0.9,0,1.3,0.4,1.3,1.3v32.4c0,2.4-0.5,4.6-1.4,6.7c-0.9,2.1-2.2,3.9-3.8,5.5
		c-1.6,1.6-3.4,2.8-5.6,3.7c-2.1,0.9-4.4,1.4-6.7,1.4s-4.6-0.4-6.7-1.4c-2.1-0.9-3.9-2.1-5.5-3.7c-1.6-1.6-2.8-3.4-3.7-5.5
		c-0.9-2.1-1.4-4.4-1.4-6.7V58z"/>
	<path class="st1" d="M396.6,58.1c0-0.3,0.1-0.6,0.4-0.9c0.2-0.3,0.5-0.4,0.8-0.4c0.4,0,0.8,0.1,1,0.4c0.2,0.3,0.4,0.6,0.4,0.9v47
		h22.3c0.9,0,1.3,0.5,1.3,1.4c0,0.3-0.1,0.6-0.4,0.8c-0.2,0.2-0.5,0.4-0.9,0.4h-23.8c-0.4,0-0.7-0.1-0.8-0.4
		c-0.1-0.2-0.2-0.5-0.2-0.8V58.1z"/>
	<path class="st1" d="M427.8,58c0-0.9,0.4-1.3,1.3-1.3c0.9,0,1.3,0.4,1.3,1.3v32.2c0,2,0.4,3.9,1.2,5.7c0.8,1.8,1.8,3.4,3.1,4.7
		c1.3,1.4,2.9,2.4,4.7,3.2c1.8,0.8,3.8,1.2,5.8,1.2c2,0,3.9-0.4,5.8-1.2c1.8-0.8,3.4-1.8,4.8-3.2c1.4-1.4,2.4-2.9,3.2-4.7
		c0.8-1.8,1.2-3.7,1.2-5.7V57.9c0-0.9,0.4-1.3,1.3-1.3c0.9,0,1.3,0.4,1.3,1.3v32.4c0,2.4-0.5,4.6-1.4,6.7c-0.9,2.1-2.2,3.9-3.8,5.5
		c-1.6,1.6-3.4,2.8-5.6,3.7c-2.1,0.9-4.4,1.4-6.7,1.4c-2.4,0-4.6-0.4-6.7-1.4c-2.1-0.9-3.9-2.1-5.5-3.7c-1.6-1.6-2.8-3.4-3.7-5.5
		c-0.9-2.1-1.4-4.4-1.4-6.7V58z"/>
	<path class="st1" d="M502.5,93c0-1.7-0.3-3.1-1-4.4c-0.6-1.3-1.5-2.3-2.7-3.3c-1.1-0.9-2.5-1.8-4-2.5c-1.5-0.7-3.2-1.4-5-2
		c-1.7-0.5-3.4-1.1-5.2-1.8s-3.5-1.5-5.1-2.5c-1.5-1-2.8-2.1-3.8-3.3c-1-1.3-1.5-2.7-1.5-4.3c0-1.9,0.5-3.6,1.4-5.1
		c0.9-1.5,2.1-2.8,3.6-3.9c1.4-1.1,3-1.9,4.8-2.5c1.8-0.6,3.5-0.9,5.2-0.9c1.1,0,2.3,0.1,3.5,0.4c1.2,0.2,2.4,0.6,3.6,1.1
		c1.2,0.5,2.4,1.2,3.5,2c1.1,0.8,2.2,1.8,3.2,3c0.5,0.6,0.5,1.2,0,1.7s-1,0.7-1.4,0.6c-0.4-0.1-0.7-0.3-0.9-0.6
		c-0.9-1.2-1.8-2.2-2.8-2.9c-1-0.7-2-1.3-3.1-1.7c-1-0.4-2-0.7-3-0.8c-1-0.1-1.8-0.2-2.6-0.2c-1.2,0-2.6,0.2-4,0.5
		c-1.4,0.3-2.8,0.9-4,1.7c-1.2,0.8-2.3,1.8-3.1,3.1c-0.8,1.3-1.2,2.8-1.2,4.5c0,1.2,0.4,2.2,1.2,3.1c0.8,0.9,1.9,1.7,3.1,2.4
		c1.2,0.7,2.6,1.3,4.1,1.9c1.5,0.5,2.8,1,4,1.4c2.4,1,4.6,1.9,6.6,2.8c1.9,0.9,3.6,2,4.9,3.1c1.3,1.1,2.3,2.5,3,3.9
		c0.7,1.5,1,3.2,1,5.2c0,2.1-0.4,4-1.3,5.8c-0.9,1.8-2.1,3.3-3.6,4.6c-1.5,1.3-3.2,2.3-5.1,3.1c-1.9,0.8-3.9,1.2-6,1.2
		c-1.5,0-3-0.2-4.6-0.6c-1.6-0.4-3.1-0.9-4.6-1.6c-1.4-0.7-2.7-1.5-3.9-2.5c-1.2-1-2.1-2.1-2.6-3.3c-0.3-0.6-0.3-1.1,0-1.5
		c0.3-0.4,0.6-0.6,1.1-0.6c0.6,0,1,0.2,1.3,0.6c0.5,1.1,1.3,2,2.4,2.9c1.1,0.9,2.3,1.6,3.6,2.2c1.3,0.6,2.6,1,3.9,1.4
		c1.3,0.3,2.5,0.5,3.5,0.5c1.7,0,3.4-0.3,5-0.9c1.6-0.6,3-1.5,4.3-2.6c1.3-1.1,2.2-2.4,3-3.9C502.1,96.3,502.5,94.7,502.5,93z"/>
	<path class="st1" d="M560.7,59.3c-3.2,0-6.2,0.6-8.9,1.8c-2.8,1.2-5.2,2.8-7.2,4.9c-2.1,2.1-3.7,4.5-4.9,7.3
		c-1.2,2.8-1.8,5.8-1.8,8.9c0,3.2,0.6,6.2,1.8,8.9c1.2,2.8,2.8,5.2,4.9,7.2c2,2.1,4.5,3.7,7.2,4.9c2.8,1.2,5.8,1.8,8.9,1.8
		c3.5,0,6.9-0.7,10.1-2.2c3.2-1.5,5.8-3.6,7.9-6.3c0.2-0.3,0.5-0.5,1-0.5c0.9,0,1.3,0.4,1.3,1.3c0,0.2-0.1,0.5-0.3,0.8
		c-2.3,2.9-5.2,5.2-8.7,6.9s-7.2,2.6-11.2,2.6c-3.5,0-6.8-0.7-9.9-2c-3.1-1.3-5.8-3.1-8.1-5.4c-2.3-2.3-4.1-5-5.4-8.1
		c-1.3-3.1-2-6.4-2-9.9c0-2.6,0.4-5.1,1.2-7.5c0.8-2.4,1.8-4.6,3.2-6.7c1.4-2,3-3.8,4.9-5.4c1.9-1.6,4-2.9,6.3-3.8
		c1.5-0.7,3.1-1.2,4.8-1.5c1.6-0.3,3.3-0.5,5-0.5c3.5,0,6.8,0.7,10,2c3.2,1.3,5.9,3.2,8.2,5.6c0.4,0.4,0.7,0.7,0.8,0.9
		c0.1,0.2,0.1,0.4,0.1,0.6c0,0.7-0.4,1.1-1.2,1.1c-0.2,0-0.4,0-0.6-0.1c-0.2-0.1-0.5-0.3-0.9-0.8c-2.1-2.1-4.6-3.8-7.4-5
		C566.7,59.9,563.7,59.3,560.7,59.3z"/>
	<path class="st1" d="M627,105.8c0.2,0.3,0.2,0.6,0,1c-0.1,0.3-0.4,0.6-0.7,0.7c-0.4,0.2-0.7,0.2-1,0c-0.3-0.1-0.5-0.4-0.6-0.7
		l-7.1-16.3h-25.5l-7,16.3c-0.1,0.3-0.3,0.5-0.6,0.7c-0.3,0.1-0.7,0.1-1,0c-0.3-0.2-0.5-0.4-0.7-0.7c-0.1-0.3-0.1-0.6,0-1l20.8-48.2
		c0.3-0.6,0.7-0.9,1.3-0.9c0.5,0,0.9,0.3,1.2,1L627,105.8z M593.2,88h23.2l-11.6-26.8L593.2,88z"/>
	<path class="st1" d="M637.6,58c0-0.9,0.4-1.3,1.3-1.3h13.7c1.8,0,3.4,0.3,5,1c1.6,0.7,3,1.6,4.2,2.8c1.2,1.2,2.2,2.5,2.9,4.1
		c0.7,1.6,1.1,3.2,1.1,5c0,1.8-0.4,3.4-1.1,5c-0.7,1.6-1.7,2.9-2.9,4.1c-1.2,1.2-2.6,2.1-4.2,2.8c-1.6,0.7-3.2,1-5,1l14.5,23
		c0.5,0.7,0.4,1.3-0.3,1.8c-0.3,0.2-0.6,0.3-1,0.2c-0.3-0.1-0.6-0.3-0.8-0.6l-15.5-24.4h-9.4v23.7c0,0.9-0.4,1.3-1.3,1.3
		c-0.9,0-1.3-0.4-1.3-1.3V58z M640.1,59.3v20.8h12.5c1.5,0,2.9-0.3,4.2-0.8c1.3-0.5,2.4-1.3,3.3-2.2c0.9-1,1.7-2.1,2.2-3.3
		c0.5-1.3,0.8-2.6,0.8-4c0-1.5-0.3-2.9-0.8-4.1c-0.5-1.2-1.3-2.3-2.2-3.3c-0.9-0.9-2-1.7-3.3-2.2c-1.3-0.5-2.7-0.8-4.2-0.8H640.1z"
		/>
	<path class="st1" d="M718.7,82.2c0,3.5-0.7,6.8-2,9.9c-1.3,3.1-3.1,5.8-5.4,8.1c-2.3,2.3-5,4.1-8.1,5.4c-3.1,1.3-6.4,2-9.9,2h-14.5
		c-0.3,0-0.6-0.1-0.9-0.4c-0.3-0.2-0.4-0.5-0.4-0.9V58c0-0.4,0.1-0.7,0.4-0.9c0.3-0.2,0.6-0.4,0.9-0.4h14.5c3.5,0,6.8,0.7,9.9,2
		c3.1,1.3,5.8,3.1,8.1,5.4c2.3,2.3,4.1,5,5.4,8.1C718.1,75.4,718.7,78.7,718.7,82.2z M680,59.3v45.8h13.3c3.1,0,6.1-0.6,8.9-1.8
		c2.8-1.2,5.2-2.8,7.3-4.9c2.1-2.1,3.7-4.5,4.9-7.3c1.2-2.8,1.8-5.7,1.8-8.9c0-3.2-0.6-6.3-1.8-9.1c-1.2-2.8-2.8-5.2-4.9-7.3
		c-2.1-2-4.5-3.7-7.3-4.8c-2.8-1.2-5.8-1.8-8.9-1.8H680z"/>
</g>
<g>
	
		<linearGradient id="SVGID_1_" gradientUnits="userSpaceOnUse" x1="431.829" y1="-219.2352" x2="527.3265" y2="-219.2352" gradientTransform="matrix(-0.3652 -0.9309 0.9309 -0.3652 491.0685 446.9168)">
		<stop  offset="5.618000e-03" style="stop-color:#EBC17D"/>
		<stop  offset="0.1854" style="stop-color:#DFB77C"/>
		<stop  offset="0.5955" style="stop-color:#C08329"/>
		<stop  offset="0.7976" style="stop-color:#DCAC68"/>
		<stop  offset="0.8708" style="stop-color:#EABE81"/>
		<stop  offset="1" style="stop-color:#EEDCC3"/>
	</linearGradient>
	<circle class="st2" cx="111.8" cy="80.5" r="43.3"/>
	
		<linearGradient id="SVGID_00000126311280421551816160000004999225732704550055_" gradientUnits="userSpaceOnUse" x1="446.9693" y1="-296.7755" x2="505.6258" y2="-296.7755" gradientTransform="matrix(-0.1505 -0.9886 0.9886 -0.1505 518.4583 504.9142)">
		<stop  offset="5.618000e-03" style="stop-color:#EBC17D"/>
		<stop  offset="0.1854" style="stop-color:#DFB77C"/>
		<stop  offset="0.5955" style="stop-color:#C08329"/>
		<stop  offset="0.7976" style="stop-color:#DCAC68"/>
		<stop  offset="0.8708" style="stop-color:#EABE81"/>
		<stop  offset="1" style="stop-color:#EEDCC3"/>
	</linearGradient>
	
		<circle style="fill:none;stroke:url(#SVGID_00000126311280421551816160000004999225732704550055_);stroke-width:7.6455;stroke-miterlimit:10;" cx="153.4" cy="78.7" r="25.5"/>
</g>
</svg>
